<?xml version="1.0" encoding="UTF-8"?>
<!--Generator: Apple Native CoreSVG 149-->
<!DOCTYPE svg
PUBLIC "-//W3C//DTD SVG 1.1//EN"
       "http://www.w3.org/Graphics/SVG/1.1/DTD/svg11.dtd">
<svg version="1.1" xmlns="http://www.w3.org/2000/svg" xmlns:xlink="http://www.w3.org/1999/xlink" width="3300" height="2200">
 <!--glyph: "uni10098C.medium", point size: 100.000000, font version: "Version 16.0d18e1", template writer version: "8"-->
 <g id="Notes">
  <rect height="2200" id="artboard" style="fill:white;opacity:1" width="3300" x="0" y="0"/>
  <line id="" style="fill:none;stroke:black;opacity:1;stroke-width:0.5;" x1="263" x2="3036" y1="292" y2="292"/>
  <text style="stroke:none;fill:black;font-family:-apple-system,&quot;SF Pro Display&quot;,&quot;SF Pro Text&quot;,Helvetica,sans-serif;font-weight:bold;" transform="matrix(1 0 0 1 263 322)">Weight/Scale Variations</text>
  <text style="stroke:none;fill:black;font-family:-apple-system,&quot;SF Pro Display&quot;,&quot;SF Pro Text&quot;,Helvetica,sans-serif;text-anchor:middle;" transform="matrix(1 0 0 1 559.711 322)">Ultralight</text>
  <text style="stroke:none;fill:black;font-family:-apple-system,&quot;SF Pro Display&quot;,&quot;SF Pro Text&quot;,Helvetica,sans-serif;text-anchor:middle;" transform="matrix(1 0 0 1 856.422 322)">Thin</text>
  <text style="stroke:none;fill:black;font-family:-apple-system,&quot;SF Pro Display&quot;,&quot;SF Pro Text&quot;,Helvetica,sans-serif;text-anchor:middle;" transform="matrix(1 0 0 1 1153.13 322)">Light</text>
  <text style="stroke:none;fill:black;font-family:-apple-system,&quot;SF Pro Display&quot;,&quot;SF Pro Text&quot;,Helvetica,sans-serif;text-anchor:middle;" transform="matrix(1 0 0 1 1449.84 322)">Regular</text>
  <text style="stroke:none;fill:black;font-family:-apple-system,&quot;SF Pro Display&quot;,&quot;SF Pro Text&quot;,Helvetica,sans-serif;text-anchor:middle;" transform="matrix(1 0 0 1 1746.56 322)">Medium</text>
  <text style="stroke:none;fill:black;font-family:-apple-system,&quot;SF Pro Display&quot;,&quot;SF Pro Text&quot;,Helvetica,sans-serif;text-anchor:middle;" transform="matrix(1 0 0 1 2043.27 322)">Semibold</text>
  <text style="stroke:none;fill:black;font-family:-apple-system,&quot;SF Pro Display&quot;,&quot;SF Pro Text&quot;,Helvetica,sans-serif;text-anchor:middle;" transform="matrix(1 0 0 1 2339.98 322)">Bold</text>
  <text style="stroke:none;fill:black;font-family:-apple-system,&quot;SF Pro Display&quot;,&quot;SF Pro Text&quot;,Helvetica,sans-serif;text-anchor:middle;" transform="matrix(1 0 0 1 2636.69 322)">Heavy</text>
  <text style="stroke:none;fill:black;font-family:-apple-system,&quot;SF Pro Display&quot;,&quot;SF Pro Text&quot;,Helvetica,sans-serif;text-anchor:middle;" transform="matrix(1 0 0 1 2933.4 322)">Black</text>
  <line id="" style="fill:none;stroke:black;opacity:1;stroke-width:0.5;" x1="263" x2="3036" y1="1903" y2="1903"/>
  <g id="" transform="matrix(1 0 0 1 263 1933)">
   <path d="M9.24805 0.830078C13.5547 0.830078 17.1387-2.74414 17.1387-7.05078C17.1387-11.3574 13.5449-14.9316 9.23828-14.9316C4.94141-14.9316 1.36719-11.3574 1.36719-7.05078C1.36719-2.74414 4.95117 0.830078 9.24805 0.830078ZM9.24805-0.654297C5.70312-0.654297 2.87109-3.49609 2.87109-7.05078C2.87109-10.6055 5.69336-13.4473 9.23828-13.4473C12.793-13.4473 15.6348-10.6055 15.6445-7.05078C15.6543-3.49609 12.8027-0.654297 9.24805-0.654297ZM6.39648-6.31836L8.50586-6.31836L8.50586-4.19922C8.50586-3.75977 8.79883-3.45703 9.22852-3.45703C9.67773-3.45703 9.9707-3.75977 9.9707-4.19922L9.9707-6.31836L12.0996-6.31836C12.5391-6.31836 12.8418-6.61133 12.8418-7.04102C12.8418-7.48047 12.5391-7.7832 12.0996-7.7832L9.9707-7.7832L9.9707-9.89258C9.9707-10.3418 9.67773-10.6445 9.22852-10.6445C8.79883-10.6445 8.50586-10.3418 8.50586-9.89258L8.50586-7.7832L6.39648-7.7832C5.94727-7.7832 5.64453-7.48047 5.64453-7.04102C5.64453-6.61133 5.94727-6.31836 6.39648-6.31836Z"/>
  </g>
  <g id="" transform="matrix(1 0 0 1 281.506 1933)">
   <path d="M11.709 2.91016C17.1582 2.91016 21.6699-1.61133 21.6699-7.05078C21.6699-12.5 17.1484-17.0117 11.6992-17.0117C6.25977-17.0117 1.74805-12.5 1.74805-7.05078C1.74805-1.61133 6.26953 2.91016 11.709 2.91016ZM11.709 1.25C7.09961 1.25 3.41797-2.44141 3.41797-7.05078C3.41797-11.6602 7.08984-15.3516 11.6992-15.3516C16.3086-15.3516 20-11.6602 20.0098-7.05078C20.0195-2.44141 16.3184 1.25 11.709 1.25ZM7.98828-6.23047L10.8789-6.23047L10.8789-3.32031C10.8789-2.83203 11.2109-2.5 11.6895-2.5C12.1777-2.5 12.5195-2.83203 12.5195-3.32031L12.5195-6.23047L15.4297-6.23047C15.918-6.23047 16.25-6.5625 16.25-7.04102C16.25-7.5293 15.918-7.87109 15.4297-7.87109L12.5195-7.87109L12.5195-10.7617C12.5195-11.2695 12.1777-11.6016 11.6895-11.6016C11.2109-11.6016 10.8789-11.2598 10.8789-10.7617L10.8789-7.87109L7.98828-7.87109C7.48047-7.87109 7.14844-7.5293 7.14844-7.04102C7.14844-6.5625 7.49023-6.23047 7.98828-6.23047Z"/>
  </g>
  <g id="" transform="matrix(1 0 0 1 304.924 1933)">
   <path d="M14.9707 5.66406C21.9336 5.66406 27.6953-0.0976562 27.6953-7.05078C27.6953-14.0137 21.9238-19.7754 14.9609-19.7754C8.00781-19.7754 2.25586-14.0137 2.25586-7.05078C2.25586-0.0976562 8.01758 5.66406 14.9707 5.66406ZM14.9707 3.84766C8.93555 3.84766 4.08203-1.01562 4.08203-7.05078C4.08203-13.0957 8.92578-17.9492 14.9609-17.9492C21.0059-17.9492 25.8594-13.0957 25.8691-7.05078C25.8789-1.01562 21.0156 3.84766 14.9707 3.84766ZM10.0586-6.14258L14.0625-6.14258L14.0625-2.12891C14.0625-1.5918 14.4336-1.2207 14.9512-1.2207C15.4883-1.2207 15.8594-1.5918 15.8594-2.12891L15.8594-6.14258L19.8828-6.14258C20.4102-6.14258 20.791-6.51367 20.791-7.03125C20.791-7.56836 20.4199-7.94922 19.8828-7.94922L15.8594-7.94922L15.8594-11.9531C15.8594-12.5098 15.4883-12.8809 14.9512-12.8809C14.4336-12.8809 14.0625-12.5 14.0625-11.9531L14.0625-7.94922L10.0586-7.94922C9.50195-7.94922 9.13086-7.56836 9.13086-7.03125C9.13086-6.51367 9.51172-6.14258 10.0586-6.14258Z"/>
  </g>
  <text style="stroke:none;fill:black;font-family:-apple-system,&quot;SF Pro Display&quot;,&quot;SF Pro Text&quot;,Helvetica,sans-serif;font-weight:bold;" transform="matrix(1 0 0 1 263 1953)">Design Variations</text>
  <text style="stroke:none;fill:black;font-family:-apple-system,&quot;SF Pro Display&quot;,&quot;SF Pro Text&quot;,Helvetica,sans-serif;" transform="matrix(1 0 0 1 263 1971)">Symbols are supported in up to nine weights and three scales.</text>
  <text style="stroke:none;fill:black;font-family:-apple-system,&quot;SF Pro Display&quot;,&quot;SF Pro Text&quot;,Helvetica,sans-serif;" transform="matrix(1 0 0 1 263 1989)">For optimal layout with text and other symbols, vertically align</text>
  <text style="stroke:none;fill:black;font-family:-apple-system,&quot;SF Pro Display&quot;,&quot;SF Pro Text&quot;,Helvetica,sans-serif;" transform="matrix(1 0 0 1 263 2007)">symbols with the adjacent text.</text>
  <line id="" style="fill:none;stroke:#00AEEF;stroke-width:0.5;opacity:1.0;" x1="776" x2="776" y1="1919" y2="1933"/>
  <g id="" transform="matrix(1 0 0 1 776 1933)">
   <path d="M3.31055 0.126953C3.82812 0.126953 4.08203-0.0683594 4.26758-0.605469L5.52734-4.0625L11.2891-4.0625L12.5488-0.605469C12.7344-0.0683594 12.9883 0.126953 13.4961 0.126953C14.0137 0.126953 14.3457-0.185547 14.3457-0.673828C14.3457-0.839844 14.3164-0.986328 14.2383-1.20117L9.6582-13.3887C9.43359-13.9941 9.0332-14.2871 8.4082-14.2871C7.80273-14.2871 7.39258-13.9941 7.17773-13.3984L2.59766-1.19141C2.51953-0.976562 2.49023-0.830078 2.49023-0.664062C2.49023-0.175781 2.80273 0.126953 3.31055 0.126953ZM6.00586-5.53711L8.37891-12.1094L8.42773-12.1094L10.8008-5.53711Z"/>
  </g>
  <line id="" style="fill:none;stroke:#00AEEF;stroke-width:0.5;opacity:1.0;" x1="792.836" x2="792.836" y1="1919" y2="1933"/>
  <text style="stroke:none;fill:black;font-family:-apple-system,&quot;SF Pro Display&quot;,&quot;SF Pro Text&quot;,Helvetica,sans-serif;font-weight:bold;" transform="matrix(1 0 0 1 776 1953)">Margins</text>
  <text style="stroke:none;fill:black;font-family:-apple-system,&quot;SF Pro Display&quot;,&quot;SF Pro Text&quot;,Helvetica,sans-serif;" transform="matrix(1 0 0 1 776 1971)">Leading and trailing margins on the left and right side of each symbol</text>
  <text style="stroke:none;fill:black;font-family:-apple-system,&quot;SF Pro Display&quot;,&quot;SF Pro Text&quot;,Helvetica,sans-serif;" transform="matrix(1 0 0 1 776 1989)">can be adjusted by modifying the x-location of the margin guidelines.</text>
  <text style="stroke:none;fill:black;font-family:-apple-system,&quot;SF Pro Display&quot;,&quot;SF Pro Text&quot;,Helvetica,sans-serif;" transform="matrix(1 0 0 1 776 2007)">Modifications are automatically applied proportionally to all</text>
  <text style="stroke:none;fill:black;font-family:-apple-system,&quot;SF Pro Display&quot;,&quot;SF Pro Text&quot;,Helvetica,sans-serif;" transform="matrix(1 0 0 1 776 2025)">scales and weights.</text>
  <g id="" transform="matrix(1 0 0 1 1289 1933)">
   <path d="M2.8418 1.86523L4.54102 3.57422C5.40039 4.44336 6.38672 4.38477 7.31445 3.35938L17.4902-7.85156C17.7539-7.76367 18.0273-7.7832 18.3398-7.8418L19.4043-8.03711L20.0684-7.36328L20.0293-6.80664C19.9902-6.30859 20.1172-5.92773 20.6055-5.44922L21.3672-4.70703C21.8457-4.22852 22.4609-4.19922 22.9297-4.66797L25.8398-7.58789C26.3086-8.05664 26.2891-8.65234 25.8105-9.13086L25.0391-9.89258C24.5605-10.3711 24.1895-10.5273 23.7109-10.4883L23.1348-10.4395L22.4902-11.0742L22.7344-12.1973C22.8613-12.7637 22.7051-13.2031 22.1191-13.7891L19.9219-15.9766C16.582-19.2969 12.1484-19.2188 9.25781-16.3281C8.83789-15.918 8.80859-15.3418 9.04297-14.9512C9.27734-14.5898 9.73633-14.3555 10.3809-14.5215C11.8457-14.8633 13.3691-14.9219 14.7949-13.9844L14.209-12.5293C14.0137-12.0508 13.9844-11.6504 14.1113-11.2891L3.04688-0.898438C2.06055 0.0195312 1.98242 0.996094 2.8418 1.86523ZM10.752-15.957C13.1836-17.7344 16.4746-17.4316 18.7012-15.2051L21.1328-12.793C21.3672-12.5586 21.4062-12.373 21.3379-12.0312L21.0156-10.5469L22.5195-9.0625L23.5059-9.12109C23.7598-9.13086 23.8379-9.11133 24.0332-8.91602L24.6094-8.33984L22.168-5.89844L21.5918-6.47461C21.3965-6.66992 21.3672-6.74805 21.377-7.01172L21.4453-7.98828L19.9512-9.47266L18.4277-9.21875C18.1055-9.15039 17.959-9.17969 17.7148-9.41406L15.7129-11.416C15.459-11.6504 15.4297-11.8164 15.5859-12.1875L16.4648-14.2773C14.9023-15.7324 12.8711-16.3574 10.8398-15.7617C10.6836-15.7227 10.625-15.8496 10.752-15.957ZM5.27344 2.30469L4.10156 1.14258C3.63281 0.683594 3.74023 0.341797 4.14062-0.0195312L14.9512-10.1953L16.416-8.71094L6.42578 2.27539C6.07422 2.67578 5.74219 2.77344 5.27344 2.30469Z"/>
  </g>
  <text style="stroke:none;fill:black;font-family:-apple-system,&quot;SF Pro Display&quot;,&quot;SF Pro Text&quot;,Helvetica,sans-serif;font-weight:bold;" transform="matrix(1 0 0 1 1289 1953)">Exporting</text>
  <text style="stroke:none;fill:black;font-family:-apple-system,&quot;SF Pro Display&quot;,&quot;SF Pro Text&quot;,Helvetica,sans-serif;" transform="matrix(1 0 0 1 1289 1971)">Symbols should be outlined when exporting to ensure the</text>
  <text style="stroke:none;fill:black;font-family:-apple-system,&quot;SF Pro Display&quot;,&quot;SF Pro Text&quot;,Helvetica,sans-serif;" transform="matrix(1 0 0 1 1289 1989)">design is preserved when submitting to Xcode.</text>
  <text id="template-version" style="stroke:none;fill:black;font-family:-apple-system,&quot;SF Pro Display&quot;,&quot;SF Pro Text&quot;,Helvetica,sans-serif;text-anchor:end;" transform="matrix(1 0 0 1 3036 1933)">Template v.2.0</text>
  <text style="stroke:none;fill:black;font-family:-apple-system,&quot;SF Pro Display&quot;,&quot;SF Pro Text&quot;,Helvetica,sans-serif;text-anchor:end;" transform="matrix(1 0 0 1 3036 1951)">Requires Xcode 12 or greater</text>
  <text style="stroke:none;fill:black;font-family:-apple-system,&quot;SF Pro Display&quot;,&quot;SF Pro Text&quot;,Helvetica,sans-serif;text-anchor:end;" transform="matrix(1 0 0 1 3036 1969)">Generated from chart.bar.doc.horizontal.fill</text>
  <text style="stroke:none;fill:black;font-family:-apple-system,&quot;SF Pro Display&quot;,&quot;SF Pro Text&quot;,Helvetica,sans-serif;text-anchor:end;" transform="matrix(1 0 0 1 3036 1987)">Typeset at 100 points</text>
  <text style="stroke:none;fill:black;font-family:-apple-system,&quot;SF Pro Display&quot;,&quot;SF Pro Text&quot;,Helvetica,sans-serif;" transform="matrix(1 0 0 1 263 726)">Small</text>
  <text style="stroke:none;fill:black;font-family:-apple-system,&quot;SF Pro Display&quot;,&quot;SF Pro Text&quot;,Helvetica,sans-serif;" transform="matrix(1 0 0 1 263 1156)">Medium</text>
  <text style="stroke:none;fill:black;font-family:-apple-system,&quot;SF Pro Display&quot;,&quot;SF Pro Text&quot;,Helvetica,sans-serif;" transform="matrix(1 0 0 1 263 1586)">Large</text>
 </g>
 <g id="Guides">
  <g id="H-reference" style="fill:#27AAE1;stroke:none;" transform="matrix(1 0 0 1 339 696)">
   <path d="M0.976562 0L3.66211 0L12.9883-24.4629L45.752-24.4629L55.127 0L57.7637 0L30.6152-70.459L28.125-70.459ZM29.3457-67.1387L29.4434-67.1387L44.873-26.709L13.8672-26.709Z"/>
  </g>
  <line id="Baseline-S" style="fill:none;stroke:#27AAE1;opacity:1;stroke-width:0.5;" x1="263" x2="3036" y1="696" y2="696"/>
  <line id="Capline-S" style="fill:none;stroke:#27AAE1;opacity:1;stroke-width:0.5;" x1="263" x2="3036" y1="625.541" y2="625.541"/>
  <g id="H-reference" style="fill:#27AAE1;stroke:none;" transform="matrix(1 0 0 1 339 1126)">
   <path d="M0.976562 0L3.66211 0L12.9883-24.4629L45.752-24.4629L55.127 0L57.7637 0L30.6152-70.459L28.125-70.459ZM29.3457-67.1387L29.4434-67.1387L44.873-26.709L13.8672-26.709Z"/>
  </g>
  <line id="Baseline-M" style="fill:none;stroke:#27AAE1;opacity:1;stroke-width:0.5;" x1="263" x2="3036" y1="1126" y2="1126"/>
  <line id="Capline-M" style="fill:none;stroke:#27AAE1;opacity:1;stroke-width:0.5;" x1="263" x2="3036" y1="1055.54" y2="1055.54"/>
  <g id="H-reference" style="fill:#27AAE1;stroke:none;" transform="matrix(1 0 0 1 339 1556)">
   <path d="M0.976562 0L3.66211 0L12.9883-24.4629L45.752-24.4629L55.127 0L57.7637 0L30.6152-70.459L28.125-70.459ZM29.3457-67.1387L29.4434-67.1387L44.873-26.709L13.8672-26.709Z"/>
  </g>
  <line id="Baseline-L" style="fill:none;stroke:#27AAE1;opacity:1;stroke-width:0.5;" x1="263" x2="3036" y1="1556" y2="1556"/>
  <line id="Capline-L" style="fill:none;stroke:#27AAE1;opacity:1;stroke-width:0.5;" x1="263" x2="3036" y1="1485.54" y2="1485.54"/>
  <line id="left-margin" style="fill:none;stroke:#00AEEF;stroke-width:0.5;opacity:1.0;" x1="1396.33" x2="1396.33" y1="1030.79" y2="1150.12"/>
  <line id="right-margin" style="fill:none;stroke:#00AEEF;stroke-width:0.5;opacity:1.0;" x1="1503.36" x2="1503.36" y1="1030.79" y2="1150.12"/>
 </g>
 <g id="Symbols">
  <g id="Black-L" transform="matrix(1 0 0 1 2859.65 1556)">
   <path d="M16.0645 11.3281C16.0645 26.5625 24.707 35.2539 39.8926 35.2539L107.617 35.2539C122.803 35.2539 131.445 26.5625 131.445 11.3281L131.445-81.7383C131.445-96.9727 122.803-105.664 107.617-105.664L39.8926-105.664C24.707-105.664 16.0645-96.9727 16.0645-81.7383ZM47.1191-80.4688L82.0801-80.4688C85.3516-80.4688 87.5977-78.2715 87.5977-75.0488L87.5977-66.8945C87.5977-63.623 85.3516-61.4746 82.0801-61.4746L47.1191-61.4746C43.7988-61.4746 41.6504-63.623 41.6504-66.8945L41.6504-75.0488C41.6504-78.2715 43.7988-80.4688 47.1191-80.4688ZM47.1191-56.8359L100.537-56.8359C103.809-56.8359 105.957-54.6387 105.957-51.3672L105.957-43.3105C105.957-39.9902 103.809-37.793 100.537-37.793L47.1191-37.793C43.7988-37.793 41.6504-39.9902 41.6504-43.3105L41.6504-51.3672C41.6504-54.6387 43.7988-56.8359 47.1191-56.8359ZM47.1191-33.252L89.7949-33.252C93.1152-33.252 95.2148-31.1523 95.2148-27.8809L95.2148-19.6777C95.2148-16.4062 93.1152-14.209 89.7949-14.209L47.1191-14.209C43.7988-14.209 41.6504-16.4062 41.6504-19.6777L41.6504-27.8809C41.6504-31.1523 43.7988-33.252 47.1191-33.252ZM47.1191-9.61914L74.4141-9.61914C77.6855-9.61914 79.9316-7.4707 79.9316-4.19922L79.9316 3.95508C79.9316 7.22656 77.6855 9.375 74.4141 9.375L47.1191 9.375C43.7988 9.375 41.6504 7.22656 41.6504 3.95508L41.6504-4.19922C41.6504-7.4707 43.7988-9.61914 47.1191-9.61914Z"/>
  </g>
  <g id="Heavy-L" transform="matrix(1 0 0 1 2564.18 1556)">
   <path d="M16.0645 11.7188C16.0645 26.3672 24.1211 34.4727 38.7207 34.4727L106.348 34.4727C120.898 34.4727 128.955 26.3672 128.955 11.7188L128.955-82.1777C128.955-96.7773 120.898-104.932 106.348-104.932L38.7207-104.932C24.1211-104.932 16.0645-96.7773 16.0645-82.1777ZM44.9707-80.957L81.0059-80.957C84.082-80.957 86.1328-78.9062 86.1328-75.8301L86.1328-66.9434C86.1328-63.8672 84.082-61.8652 81.0059-61.8652L44.9707-61.8652C41.8945-61.8652 39.8926-63.8672 39.8926-66.9434L39.8926-75.8301C39.8926-78.9062 41.8945-80.957 44.9707-80.957ZM44.9707-57.0312L100.146-57.0312C103.223-57.0312 105.225-54.9316 105.225-51.8555L105.225-43.0176C105.225-39.8926 103.223-37.8906 100.146-37.8906L44.9707-37.8906C41.8945-37.8906 39.8926-39.8926 39.8926-43.0176L39.8926-51.8555C39.8926-54.9316 41.8945-57.0312 44.9707-57.0312ZM44.9707-33.0566L89.4531-33.0566C92.5293-33.0566 94.4824-31.1035 94.4824-27.9785L94.4824-19.0918C94.4824-15.9668 92.5293-13.916 89.4531-13.916L44.9707-13.916C41.8945-13.916 39.8926-15.9668 39.8926-19.0918L39.8926-27.9785C39.8926-31.1035 41.8945-33.0566 44.9707-33.0566ZM44.9707-9.08203L72.7051-9.08203C75.7812-9.08203 77.832-7.08008 77.832-3.95508L77.832 4.88281C77.832 8.00781 75.7812 10.0098 72.7051 10.0098L44.9707 10.0098C41.8945 10.0098 39.8926 8.00781 39.8926 4.88281L39.8926-3.95508C39.8926-7.08008 41.8945-9.08203 44.9707-9.08203Z"/>
  </g>
  <g id="Bold-L" transform="matrix(1 0 0 1 2268.86 1556)">
   <path d="M16.0645 12.207C16.0645 26.123 23.5352 33.6426 37.4023 33.6426L104.883 33.6426C118.701 33.6426 126.172 26.123 126.172 12.207L126.172-82.6172C126.172-96.5332 118.701-104.053 104.883-104.053L37.4023-104.053C23.5352-104.053 16.0645-96.5332 16.0645-82.6172ZM42.627-81.4941L79.834-81.4941C82.6172-81.4941 84.5215-79.6387 84.5215-76.709L84.5215-67.041C84.5215-64.1602 82.6172-62.3047 79.834-62.3047L42.627-62.3047C39.7461-62.3047 37.9395-64.1602 37.9395-67.041L37.9395-76.709C37.9395-79.6387 39.7461-81.4941 42.627-81.4941ZM42.627-57.1777L99.7559-57.1777C102.588-57.1777 104.395-55.2734 104.395-52.3926L104.395-42.7734C104.395-39.7949 102.588-37.9395 99.7559-37.9395L42.627-37.9395C39.7461-37.9395 37.9395-39.7949 37.9395-42.7246L37.9395-52.3926C37.9395-55.2734 39.7461-57.1777 42.627-57.1777ZM42.627-32.8125L89.0625-32.8125C91.8945-32.8125 93.7012-31.0059 93.7012-28.0762L93.7012-18.4082C93.7012-15.4785 91.8945-13.623 89.0625-13.623L42.627-13.623C39.7461-13.623 37.9395-15.4785 37.9395-18.4082L37.9395-28.0762C37.9395-31.0059 39.7461-32.8125 42.627-32.8125ZM42.627-8.49609L70.8008-8.49609C73.6328-8.49609 75.4883-6.5918 75.4883-3.71094L75.4883 5.95703C75.4883 8.83789 73.6328 10.7422 70.8008 10.7422L42.627 10.7422C39.7461 10.7422 37.9395 8.83789 37.9395 5.95703L37.9395-3.71094C37.9395-6.5918 39.7461-8.49609 42.627-8.49609Z"/>
  </g>
  <g id="Semibold-L" transform="matrix(1 0 0 1 1973.1 1556)">
   <path d="M16.0645 12.5C16.0645 25.9766 23.0957 33.0566 36.4746 33.0566L103.857 33.0566C117.188 33.0566 124.268 25.9766 124.268 12.5L124.268-82.9102C124.268-96.3867 117.188-103.516 103.857-103.516L36.4746-103.516C23.0957-103.516 16.0645-96.3867 16.0645-82.9102ZM41.0156-81.8848L79.0039-81.8848C81.6406-81.8848 83.3984-80.127 83.3984-77.3438L83.3984-67.1387C83.3984-64.3555 81.6406-62.5977 79.0039-62.5977L41.0156-62.5977C38.2812-62.5977 36.5723-64.3555 36.5723-67.1387L36.5723-77.3438C36.5723-80.127 38.2812-81.8848 41.0156-81.8848ZM41.0156-57.3242L99.4629-57.3242C102.148-57.3242 103.809-55.5176 103.809-52.7344L103.809-42.5781C103.809-39.7461 102.148-37.9883 99.4629-37.9883L41.0156-37.9883C38.2812-37.9883 36.5723-39.7461 36.5723-42.5293L36.5723-52.7344C36.5723-55.5176 38.2812-57.3242 41.0156-57.3242ZM41.0156-32.666L88.7695-32.666C91.5039-32.666 93.1641-30.957 93.1641-28.1738L93.1641-17.9199C93.1641-15.1367 91.5039-13.3789 88.7695-13.3789L41.0156-13.3789C38.2812-13.3789 36.5723-15.1367 36.5723-17.9199L36.5723-28.1738C36.5723-30.957 38.2812-32.666 41.0156-32.666ZM41.0156-8.10547L69.4336-8.10547C72.1191-8.10547 73.877-6.29883 73.877-3.51562L73.877 6.68945C73.877 9.42383 72.1191 11.2305 69.4336 11.2305L41.0156 11.2305C38.2812 11.2305 36.5723 9.42383 36.5723 6.68945L36.5723-3.51562C36.5723-6.29883 38.2812-8.10547 41.0156-8.10547Z"/>
  </g>
  <g id="Medium-L" transform="matrix(1 0 0 1 1677.12 1556)">
   <path d="M16.0645 12.7441C16.0645 25.8789 22.8027 32.666 35.791 32.666L103.076 32.666C116.064 32.666 122.803 25.8789 122.803 12.7441L122.803-83.1543C122.803-96.2402 116.064-103.076 103.076-103.076L35.791-103.076C22.8027-103.076 16.0645-96.2402 16.0645-83.1543ZM39.7949-82.1777L78.3691-82.1777C80.9082-82.1777 82.5684-80.5176 82.5684-77.7832L82.5684-67.1875C82.5684-64.5508 80.9082-62.793 78.3691-62.793L39.7949-62.793C37.1582-62.793 35.5957-64.5508 35.5957-67.1875L35.5957-77.7832C35.5957-80.5176 37.1582-82.1777 39.7949-82.1777ZM39.7949-57.4219L99.2188-57.4219C101.807-57.4219 103.418-55.7129 103.418-53.0273L103.418-42.4316C103.418-39.7461 101.807-37.9883 99.2188-37.9883L39.7949-37.9883C37.1582-37.9883 35.5957-39.7461 35.5957-42.3828L35.5957-53.0273C35.5957-55.7129 37.1582-57.4219 39.7949-57.4219ZM39.7949-32.5684L88.5742-32.5684C91.1621-32.5684 92.7246-30.9082 92.7246-28.2715L92.7246-17.5781C92.7246-14.8926 91.1621-13.1836 88.5742-13.1836L39.7949-13.1836C37.1582-13.1836 35.5957-14.8926 35.5957-17.5781L35.5957-28.2715C35.5957-30.9082 37.1582-32.5684 39.7949-32.5684ZM39.7949-7.76367L68.457-7.76367C70.9961-7.76367 72.6562-6.10352 72.6562-3.36914L72.6562 7.22656C72.6562 9.91211 70.9961 11.6211 68.457 11.6211L39.7949 11.6211C37.1582 11.6211 35.5957 9.91211 35.5957 7.22656L35.5957-3.36914C35.5957-6.10352 37.1582-7.76367 39.7949-7.76367Z"/>
  </g>
  <g id="Regular-L" transform="matrix(1 0 0 1 1381.36 1556)">
   <path d="M16.0645 13.0859C16.0645 25.6836 22.3633 32.0801 34.8633 32.0801L102.1 32.0801C114.6 32.0801 120.898 25.6836 120.898 13.0859L120.898-83.4961C120.898-96.0938 114.6-102.49 102.1-102.49L34.8633-102.49C22.3633-102.49 16.0645-96.0938 16.0645-83.4961ZM38.1836-82.5684L77.5391-82.5684C79.9316-82.5684 81.4453-81.0059 81.4453-78.418L81.4453-67.2363C81.4453-64.7461 79.9316-63.0859 77.5391-63.0859L38.1836-63.0859C35.6934-63.0859 34.2285-64.7461 34.2285-67.2363L34.2285-78.418C34.2285-81.0059 35.6934-82.5684 38.1836-82.5684ZM38.1836-57.5195L98.9258-57.5195C101.367-57.5195 102.832-55.9082 102.832-53.3691L102.832-42.2363C102.832-39.6484 101.367-38.0371 98.9258-38.0371L38.1836-38.0371C35.6934-38.0371 34.2285-39.6484 34.2285-42.1875L34.2285-53.3691C34.2285-55.9082 35.6934-57.5195 38.1836-57.5195ZM38.1836-32.4219L88.2812-32.4219C90.7227-32.4219 92.1875-30.8594 92.1875-28.3203L92.1875-17.0898C92.1875-14.5508 90.7227-12.9883 88.2812-12.9883L38.1836-12.9883C35.6934-12.9883 34.2285-14.5508 34.2285-17.0898L34.2285-28.3203C34.2285-30.8594 35.6934-32.4219 38.1836-32.4219ZM38.1836-7.37305L67.1387-7.37305C69.5312-7.37305 71.0449-5.76172 71.0449-3.22266L71.0449 7.95898C71.0449 10.498 69.5312 12.1094 67.1387 12.1094L38.1836 12.1094C35.6934 12.1094 34.2285 10.498 34.2285 7.95898L34.2285-3.22266C34.2285-5.76172 35.6934-7.37305 38.1836-7.37305Z"/>
  </g>
  <g id="Light-L" transform="matrix(1 0 0 1 1085.43 1556)">
   <path d="M16.0645 13.7695C16.0645 25.6836 22.1191 31.7871 33.9355 31.7871L101.514 31.7871C113.281 31.7871 119.336 25.6836 119.336 13.7695L119.336-84.1309C119.336-95.9961 113.281-102.1 101.514-102.1L33.9355-102.1C22.1191-102.1 16.0645-95.9961 16.0645-84.1309ZM36.6211-83.4961L76.9043-83.4961C79.1992-83.4961 80.6152-81.9824 80.6152-79.4922L80.6152-67.4805C80.6152-65.0879 79.1992-63.4766 76.9043-63.4766L36.6211-63.4766C34.2773-63.4766 32.8613-65.0879 32.8613-67.4805L32.8613-79.4922C32.8613-81.9824 34.2773-83.4961 36.6211-83.4961ZM36.6211-57.959L98.9258-57.959C101.221-57.959 102.686-56.4453 102.686-54.0039L102.686-41.9922C102.686-39.5508 101.221-37.9883 98.9258-37.9883L36.6211-37.9883C34.2773-37.9883 32.8613-39.5508 32.8613-41.9434L32.8613-54.0039C32.8613-56.4453 34.2773-57.959 36.6211-57.959ZM36.6211-32.4219L87.9395-32.4219C90.2344-32.4219 91.6504-30.9082 91.6504-28.5156L91.6504-16.4551C91.6504-14.0137 90.2344-12.4512 87.9395-12.4512L36.6211-12.4512C34.2773-12.4512 32.8613-14.0137 32.8613-16.4551L32.8613-28.5156C32.8613-30.9082 34.2773-32.4219 36.6211-32.4219ZM36.6211-6.93359L66.2109-6.93359C68.5059-6.93359 69.9707-5.41992 69.9707-2.92969L69.9707 9.08203C69.9707 11.4746 68.5059 13.0859 66.2109 13.0859L36.6211 13.0859C34.2773 13.0859 32.8613 11.4746 32.8613 9.08203L32.8613-2.92969C32.8613-5.41992 34.2773-6.93359 36.6211-6.93359Z"/>
  </g>
  <g id="Thin-L" transform="matrix(1 0 0 1 789.747 1556)">
   <path d="M16.0645 14.7461C16.0645 25.6348 21.7773 31.3477 32.666 31.3477L100.732 31.3477C111.572 31.3477 117.285 25.6348 117.285 14.7461L117.285-84.9609C117.285-95.8496 111.572-101.611 100.732-101.611L32.666-101.611C21.7773-101.611 16.0645-95.8496 16.0645-84.9609ZM34.5703-84.7168L76.0742-84.7168C78.2227-84.7168 79.5898-83.252 79.5898-80.9082L79.5898-67.7734C79.5898-65.5273 78.2227-64.0137 76.0742-64.0137L34.5703-64.0137C32.373-64.0137 31.0059-65.5273 31.0059-67.7734L31.0059-80.9082C31.0059-83.252 32.373-84.7168 34.5703-84.7168ZM34.5703-58.5938L98.877-58.5938C101.074-58.5938 102.441-57.1289 102.441-54.834L102.441-41.6992C102.441-39.4043 101.074-37.8906 98.877-37.8906L34.5703-37.8906C32.373-37.8906 31.0059-39.4043 31.0059-41.6504L31.0059-54.834C31.0059-57.1289 32.373-58.5938 34.5703-58.5938ZM34.5703-32.4707L87.4512-32.4707C89.5996-32.4707 90.9668-31.0059 90.9668-28.7598L90.9668-15.5762C90.9668-13.2812 89.5996-11.7188 87.4512-11.7188L34.5703-11.7188C32.373-11.7188 31.0059-13.2812 31.0059-15.5762L31.0059-28.7598C31.0059-31.0059 32.373-32.4707 34.5703-32.4707ZM34.5703-6.39648L64.9902-6.39648C67.1387-6.39648 68.5059-4.93164 68.5059-2.53906L68.5059 10.5957C68.5059 12.793 67.1387 14.3555 64.9902 14.3555L34.5703 14.3555C32.373 14.3555 31.0059 12.793 31.0059 10.5957L31.0059-2.53906C31.0059-4.93164 32.373-6.39648 34.5703-6.39648Z"/>
  </g>
  <g id="Ultralight-L" transform="matrix(1 0 0 1 493.549 1556)">
   <path d="M16.0645 15.2344C16.0645 25.5859 21.6309 31.1523 31.9824 31.1523L100.293 31.1523C110.693 31.1523 116.26 25.5859 116.26 15.2344L116.26-85.4004C116.26-95.8008 110.693-101.318 100.293-101.318L31.9824-101.318C21.6309-101.318 16.0645-95.8008 16.0645-85.4004ZM33.5449-85.3516L75.6348-85.3516C77.6855-85.3516 79.0527-83.9355 79.0527-81.6406L79.0527-67.9199C79.0527-65.7715 77.6855-64.2578 75.6348-64.2578L33.5449-64.2578C31.3965-64.2578 30.0293-65.7715 30.0293-67.9199L30.0293-81.6406C30.0293-83.9355 31.3965-85.3516 33.5449-85.3516ZM33.5449-58.8867L98.8281-58.8867C100.977-58.8867 102.344-57.4707 102.344-55.2734L102.344-41.5527C102.344-39.3555 100.977-37.8418 98.8281-37.8418L33.5449-37.8418C31.3965-37.8418 30.0293-39.3555 30.0293-41.4551L30.0293-55.2734C30.0293-57.4707 31.3965-58.8867 33.5449-58.8867ZM33.5449-32.4707L87.2559-32.4707C89.3066-32.4707 90.625-31.0059 90.625-28.9062L90.625-15.0879C90.625-12.8906 89.3066-11.377 87.2559-11.377L33.5449-11.377C31.3965-11.377 30.0293-12.8906 30.0293-15.0879L30.0293-28.9062C30.0293-31.0059 31.3965-32.4707 33.5449-32.4707ZM33.5449-6.10352L64.3555-6.10352C66.4062-6.10352 67.7734-4.6875 67.7734-2.34375L67.7734 11.3281C67.7734 13.4766 66.4062 14.9902 64.3555 14.9902L33.5449 14.9902C31.3965 14.9902 30.0293 13.4766 30.0293 11.3281L30.0293-2.34375C30.0293-4.6875 31.3965-6.10352 33.5449-6.10352Z"/>
  </g>
  <g id="Black-M" transform="matrix(1 0 0 1 2874.98 1126)">
   <path d="M12.4512 0.683594C12.4512 12.9395 19.7266 20.2148 31.9824 20.2148L84.8633 20.2148C97.1191 20.2148 104.395 12.9395 104.395 0.683594L104.395-71.0938C104.395-83.3496 97.1191-90.625 84.8633-90.625L31.9824-90.625C19.7266-90.625 12.4512-83.3496 12.4512-71.0938ZM38.5254-70.0684L64.7461-70.0684C67.4805-70.0684 69.4336-68.2617 69.4336-65.5762L69.4336-59.7656C69.4336-57.0801 67.4805-55.2246 64.7461-55.2246L38.5254-55.2246C35.7422-55.2246 33.8867-57.0801 33.8867-59.7656L33.8867-65.5762C33.8867-68.2617 35.7422-70.0684 38.5254-70.0684ZM38.5254-52.0508L78.418-52.0508C81.1523-52.0508 83.0566-50.1465 83.0566-47.4609L83.0566-41.6992C83.0566-38.9648 81.1523-37.1094 78.418-37.1094L38.5254-37.1094C35.7422-37.1094 33.8867-38.9648 33.8867-41.6992L33.8867-47.4609C33.8867-50.1465 35.7422-52.0508 38.5254-52.0508ZM38.5254-33.9844L69.9219-33.9844C72.6562-33.9844 74.5117-32.2266 74.5117-29.4434L74.5117-23.6328C74.5117-20.9473 72.6562-19.043 69.9219-19.043L38.5254-19.043C35.7422-19.043 33.8867-20.9473 33.8867-23.6328L33.8867-29.4434C33.8867-32.2266 35.7422-33.9844 38.5254-33.9844ZM38.5254-15.8691L59.5215-15.8691C62.2559-15.8691 64.209-14.0137 64.209-11.3281L64.209-5.51758C64.209-2.83203 62.2559-1.02539 59.5215-1.02539L38.5254-1.02539C35.7422-1.02539 33.8867-2.83203 33.8867-5.51758L33.8867-11.3281C33.8867-14.0137 35.7422-15.8691 38.5254-15.8691Z"/>
  </g>
  <g id="Heavy-M" transform="matrix(1 0 0 1 2579.41 1126)">
   <path d="M12.4512 0.927734C12.4512 12.7441 19.1895 19.4824 30.957 19.4824L83.5938 19.4824C95.3125 19.4824 102.1 12.7441 102.1 0.927734L102.1-71.3379C102.1-83.1055 95.3125-89.8926 83.5938-89.8926L30.957-89.8926C19.1895-89.8926 12.4512-83.1055 12.4512-71.3379ZM36.6211-70.4102L63.7207-70.4102C66.3086-70.4102 68.0664-68.7012 68.0664-66.1621L68.0664-59.8145C68.0664-57.2754 66.3086-55.5664 63.7207-55.5664L36.6211-55.5664C34.0332-55.5664 32.3242-57.2754 32.3242-59.8145L32.3242-66.1621C32.3242-68.7012 34.0332-70.4102 36.6211-70.4102ZM36.6211-52.0996L77.9785-52.0996C80.5664-52.0996 82.2754-50.3418 82.2754-47.8027L82.2754-41.4551C82.2754-38.8672 80.5664-37.207 77.9785-37.207L36.6211-37.207C34.0332-37.207 32.3242-38.8672 32.3242-41.4551L32.3242-47.8027C32.3242-50.3418 34.0332-52.0996 36.6211-52.0996ZM36.6211-33.7402L69.6289-33.7402C72.168-33.7402 73.8281-32.1289 73.8281-29.541L73.8281-23.1445C73.8281-20.6055 72.168-18.8965 69.6289-18.8965L36.6211-18.8965C34.0332-18.8965 32.3242-20.6055 32.3242-23.1445L32.3242-29.541C32.3242-32.1289 34.0332-33.7402 36.6211-33.7402ZM36.6211-15.3809L57.8613-15.3809C60.4004-15.3809 62.207-13.7207 62.207-11.1816L62.207-4.78516C62.207-2.24609 60.4004-0.537109 57.8613-0.537109L36.6211-0.537109C34.0332-0.537109 32.3242-2.24609 32.3242-4.78516L32.3242-11.1816C32.3242-13.7207 34.0332-15.3809 36.6211-15.3809Z"/>
  </g>
  <g id="Bold-M" transform="matrix(1 0 0 1 2284 1126)">
   <path d="M12.4512 1.2207C12.4512 12.5 18.6035 18.6523 29.7852 18.6523L82.1777 18.6523C93.3105 18.6523 99.5117 12.5 99.5117 1.2207L99.5117-71.6797C99.5117-82.8613 93.3105-89.1113 82.1777-89.1113L29.7852-89.1113C18.6035-89.1113 12.4512-82.8613 12.4512-71.6797ZM34.4727-70.752L62.5977-70.752C64.9414-70.752 66.5039-69.1895 66.5039-66.8457L66.5039-59.8145C66.5039-57.4707 64.9414-55.9082 62.5977-55.9082L34.4727-55.9082C32.1289-55.9082 30.6152-57.4707 30.6152-59.8145L30.6152-66.8457C30.6152-69.1895 32.1289-70.752 34.4727-70.752ZM34.4727-52.1484L77.5391-52.1484C79.8828-52.1484 81.3965-50.5371 81.3965-48.1934L81.3965-41.2109C81.3965-38.8184 79.8828-37.3047 77.5391-37.3047L34.4727-37.3047C32.1289-37.3047 30.6152-38.8184 30.6152-41.2109L30.6152-48.1934C30.6152-50.5371 32.1289-52.1484 34.4727-52.1484ZM34.4727-33.4961L69.2871-33.4961C71.6309-33.4961 73.0957-32.0312 73.0957-29.6387L73.0957-22.6074C73.0957-20.2148 71.6309-18.7012 69.2871-18.7012L34.4727-18.7012C32.1289-18.7012 30.6152-20.2148 30.6152-22.6074L30.6152-29.6387C30.6152-32.0312 32.1289-33.4961 34.4727-33.4961ZM34.4727-14.8926L56.0547-14.8926C58.3496-14.8926 59.9609-13.3301 59.9609-10.9375L59.9609-3.95508C59.9609-1.61133 58.3496-0.0488281 56.0547-0.0488281L34.4727-0.0488281C32.1289-0.0488281 30.6152-1.61133 30.6152-3.95508L30.6152-10.9375C30.6152-13.3301 32.1289-14.8926 34.4727-14.8926Z"/>
  </g>
  <g id="Semibold-M" transform="matrix(1 0 0 1 1988.19 1126)">
   <path d="M12.4512 1.41602C12.4512 12.3047 18.2129 18.1152 29.0039 18.1152L81.1523 18.1152C91.9434 18.1152 97.7051 12.3047 97.7051 1.41602L97.7051-71.875C97.7051-82.7148 91.9434-88.5254 81.1523-88.5254L29.0039-88.5254C18.2129-88.5254 12.4512-82.7148 12.4512-71.875ZM33.0566-70.9961L61.8164-70.9961C64.0137-70.9961 65.4297-69.5312 65.4297-67.2852L65.4297-59.8633C65.4297-57.6172 64.0137-56.1523 61.8164-56.1523L33.0566-56.1523C30.8105-56.1523 29.4434-57.6172 29.4434-59.8633L29.4434-67.2852C29.4434-69.5312 30.8105-70.9961 33.0566-70.9961ZM33.0566-52.1484L77.2461-52.1484C79.4434-52.1484 80.8105-50.7324 80.8105-48.4863L80.8105-41.0645C80.8105-38.8184 79.4434-37.3535 77.2461-37.3535L33.0566-37.3535C30.8105-37.3535 29.4434-38.8184 29.4434-41.0645L29.4434-48.4863C29.4434-50.7324 30.8105-52.1484 33.0566-52.1484ZM33.0566-33.3496L69.043-33.3496C71.2402-33.3496 72.6074-31.9336 72.6074-29.6875L72.6074-22.2168C72.6074-19.9707 71.2402-18.5547 69.043-18.5547L33.0566-18.5547C30.8105-18.5547 29.4434-19.9707 29.4434-22.2168L29.4434-29.6875C29.4434-31.9336 30.8105-33.3496 33.0566-33.3496ZM33.0566-14.502L54.7852-14.502C56.9336-14.502 58.3984-13.0859 58.3984-10.791L58.3984-3.41797C58.3984-1.17188 56.9336 0.292969 54.7852 0.292969L33.0566 0.292969C30.8105 0.292969 29.4434-1.17188 29.4434-3.41797L29.4434-10.791C29.4434-13.0859 30.8105-14.502 33.0566-14.502Z"/>
  </g>
  <g id="Medium-M" transform="matrix(1 0 0 1 1692.16 1126)">
   <path d="M12.4512 1.61133C12.4512 12.1582 17.9199 17.6758 28.3691 17.6758L80.4199 17.6758C90.918 17.6758 96.3379 12.1582 96.3379 1.61133L96.3379-72.0215C96.3379-82.6172 90.918-88.1348 80.4199-88.1348L28.3691-88.1348C17.9199-88.1348 12.4512-82.6172 12.4512-72.0215ZM31.9336-71.1426L61.2305-71.1426C63.2812-71.1426 64.6484-69.7754 64.6484-67.627L64.6484-59.8633C64.6484-57.7637 63.2812-56.3477 61.2305-56.3477L31.9336-56.3477C29.7852-56.3477 28.5156-57.7637 28.5156-59.8633L28.5156-67.627C28.5156-69.7754 29.7852-71.1426 31.9336-71.1426ZM31.9336-52.1973L77.002-52.1973C79.1016-52.1973 80.3711-50.8301 80.3711-48.6816L80.3711-40.918C80.3711-38.7695 79.1016-37.4023 77.002-37.4023L31.9336-37.4023C29.7852-37.4023 28.5156-38.7695 28.5156-40.918L28.5156-48.6816C28.5156-50.8301 29.7852-52.1973 31.9336-52.1973ZM31.9336-33.2031L68.8477-33.2031C70.9473-33.2031 72.2656-31.8848 72.2656-29.7363L72.2656-21.9238C72.2656-19.7754 70.9473-18.4082 68.8477-18.4082L31.9336-18.4082C29.7852-18.4082 28.5156-19.7754 28.5156-21.9238L28.5156-29.7363C28.5156-31.8848 29.7852-33.2031 31.9336-33.2031ZM31.9336-14.2578L53.8086-14.2578C55.8594-14.2578 57.2266-12.8906 57.2266-10.6934L57.2266-2.97852C57.2266-0.830078 55.8594 0.537109 53.8086 0.537109L31.9336 0.537109C29.7852 0.537109 28.5156-0.830078 28.5156-2.97852L28.5156-10.6934C28.5156-12.8906 29.7852-14.2578 31.9336-14.2578Z"/>
  </g>
  <g id="Regular-M" transform="matrix(1 0 0 1 1396.33 1126)">
   <path d="M12.4512 1.80664C12.4512 12.0117 17.4805 17.0898 27.5879 17.0898L79.4434 17.0898C89.5508 17.0898 94.5801 12.0117 94.5801 1.80664L94.5801-72.2656C94.5801-82.4219 89.5508-87.5977 79.4434-87.5977L27.5879-87.5977C17.4805-87.5977 12.4512-82.4219 12.4512-72.2656ZM30.4688-71.3867L60.4492-71.3867C62.3535-71.3867 63.5742-70.1172 63.5742-68.0664L63.5742-59.9121C63.5742-57.9102 62.3535-56.5918 60.4492-56.5918L30.4688-56.5918C28.5156-56.5918 27.3438-57.9102 27.3438-59.9121L27.3438-68.0664C27.3438-70.1172 28.5156-71.3867 30.4688-71.3867ZM30.4688-52.2461L76.709-52.2461C78.6621-52.2461 79.7852-50.9766 79.7852-48.9258L79.7852-40.7715C79.7852-38.7207 78.6621-37.4512 76.709-37.4512L30.4688-37.4512C28.5156-37.4512 27.3438-38.7207 27.3438-40.7715L27.3438-48.9258C27.3438-50.9766 28.5156-52.2461 30.4688-52.2461ZM30.4688-33.0078L68.6523-33.0078C70.6055-33.0078 71.7285-31.7871 71.7285-29.7852L71.7285-21.582C71.7285-19.5312 70.6055-18.3105 68.6523-18.3105L30.4688-18.3105C28.5156-18.3105 27.3438-19.5312 27.3438-21.582L27.3438-29.7852C27.3438-31.7871 28.5156-33.0078 30.4688-33.0078ZM30.4688-13.8672L52.5879-13.8672C54.4922-13.8672 55.6641-12.5977 55.6641-10.5469L55.6641-2.39258C55.6641-0.390625 54.4922 0.927734 52.5879 0.927734L30.4688 0.927734C28.5156 0.927734 27.3438-0.390625 27.3438-2.39258L27.3438-10.5469C27.3438-12.5977 28.5156-13.8672 30.4688-13.8672Z"/>
  </g>
  <g id="Light-M" transform="matrix(1 0 0 1 1100.33 1126)">
   <path d="M12.4512 2.44141C12.4512 11.9629 17.2852 16.8457 26.709 16.8457L78.9062 16.8457C88.3789 16.8457 93.1641 11.9629 93.1641 2.44141L93.1641-72.8516C93.1641-82.373 88.3789-87.207 78.9062-87.207L26.709-87.207C17.2852-87.207 12.4512-82.373 12.4512-72.8516ZM29.1016-72.2168L59.8633-72.2168C61.7188-72.2168 62.8418-70.9961 62.8418-69.043L62.8418-60.1074C62.8418-58.2031 61.7188-56.9824 59.8633-56.9824L29.1016-56.9824C27.1973-56.9824 26.0742-58.2031 26.0742-60.1074L26.0742-69.043C26.0742-70.9961 27.1973-72.2168 29.1016-72.2168ZM29.1016-52.6367L76.6602-52.6367C78.5156-52.6367 79.6387-51.416 79.6387-49.5117L79.6387-40.5762C79.6387-38.623 78.5156-37.4023 76.6602-37.4023L29.1016-37.4023C27.1973-37.4023 26.0742-38.623 26.0742-40.5273L26.0742-49.5117C26.0742-51.416 27.1973-52.6367 29.1016-52.6367ZM29.1016-33.0566L68.3105-33.0566C70.166-33.0566 71.2891-31.8848 71.2891-29.9316L71.2891-20.9473C71.2891-19.043 70.166-17.8223 68.3105-17.8223L29.1016-17.8223C27.1973-17.8223 26.0742-19.043 26.0742-20.9473L26.0742-29.9316C26.0742-31.8848 27.1973-33.0566 29.1016-33.0566ZM29.1016-13.5254L51.7578-13.5254C53.5645-13.5254 54.6875-12.3047 54.6875-10.3027L54.6875-1.36719C54.6875 0.537109 53.5645 1.75781 51.7578 1.75781L29.1016 1.75781C27.1973 1.75781 26.0742 0.537109 26.0742-1.36719L26.0742-10.3027C26.0742-12.3047 27.1973-13.5254 29.1016-13.5254Z"/>
  </g>
  <g id="Thin-M" transform="matrix(1 0 0 1 804.518 1126)">
   <path d="M12.4512 3.27148C12.4512 11.9629 16.9434 16.4551 25.5859 16.4551L78.2227 16.4551C86.8164 16.4551 91.3574 11.9629 91.3574 3.27148L91.3574-73.584C91.3574-82.2266 86.8164-86.7676 78.2227-86.7676L25.5859-86.7676C16.9434-86.7676 12.4512-82.2266 12.4512-73.584ZM27.2461-73.3398L59.1309-73.3398C60.8398-73.3398 61.9141-72.168 61.9141-70.3125L61.9141-60.4004C61.9141-58.6426 60.8398-57.4219 59.1309-57.4219L27.2461-57.4219C25.4883-57.4219 24.4141-58.6426 24.4141-60.4004L24.4141-70.3125C24.4141-72.168 25.4883-73.3398 27.2461-73.3398ZM27.2461-53.2227L76.6113-53.2227C78.3691-53.2227 79.4434-52.0508 79.4434-50.2441L79.4434-40.332C79.4434-38.5254 78.3691-37.3047 76.6113-37.3047L27.2461-37.3047C25.4883-37.3047 24.4141-38.5254 24.4141-40.2344L24.4141-50.2441C24.4141-52.0508 25.4883-53.2227 27.2461-53.2227ZM27.2461-33.0566L67.9199-33.0566C69.5801-33.0566 70.6543-31.9336 70.6543-30.1758L70.6543-20.166C70.6543-18.3594 69.5801-17.1875 67.9199-17.1875L27.2461-17.1875C25.4883-17.1875 24.4141-18.3594 24.4141-20.166L24.4141-30.1758C24.4141-31.9336 25.4883-33.0566 27.2461-33.0566ZM27.2461-12.9883L50.6348-12.9883C52.3438-12.9883 53.418-11.8652 53.418-10.0098L53.418-0.0488281C53.418 1.70898 52.3438 2.92969 50.6348 2.92969L27.2461 2.92969C25.4883 2.92969 24.4141 1.70898 24.4141-0.0488281L24.4141-10.0098C24.4141-11.8652 25.4883-12.9883 27.2461-12.9883Z"/>
  </g>
  <g id="Ultralight-M" transform="matrix(1 0 0 1 508.295 1126)">
   <path d="M12.4512 3.71094C12.4512 11.9141 16.7969 16.2598 25 16.2598L77.8809 16.2598C86.0352 16.2598 90.3809 11.9141 90.3809 3.71094L90.3809-73.9746C90.3809-82.1777 86.0352-86.5234 77.8809-86.5234L25-86.5234C16.7969-86.5234 12.4512-82.1777 12.4512-73.9746ZM26.3184-73.877L58.7402-73.877C60.3516-73.877 61.4258-72.7539 61.4258-70.9473L61.4258-60.498C61.4258-58.8379 60.3516-57.666 58.7402-57.666L26.3184-57.666C24.6094-57.666 23.584-58.8379 23.584-60.498L23.584-70.9473C23.584-72.7539 24.6094-73.877 26.3184-73.877ZM26.3184-53.4668L76.6113-53.4668C78.2715-53.4668 79.3457-52.3438 79.3457-50.6348L79.3457-40.1855C79.3457-38.4277 78.2715-37.2559 76.6113-37.2559L26.3184-37.2559C24.6094-37.2559 23.584-38.4277 23.584-40.0879L23.584-50.6348C23.584-52.3438 24.6094-53.4668 26.3184-53.4668ZM26.3184-33.0566L67.6758-33.0566C69.2871-33.0566 70.3613-31.9824 70.3613-30.2734L70.3613-19.7754C70.3613-18.0176 69.2871-16.8457 67.6758-16.8457L26.3184-16.8457C24.6094-16.8457 23.584-18.0176 23.584-19.7754L23.584-30.2734C23.584-31.9824 24.6094-33.0566 26.3184-33.0566ZM26.3184-12.7441L50.0977-12.7441C51.709-12.7441 52.7344-11.6211 52.7344-9.81445L52.7344 0.634766C52.7344 2.29492 51.709 3.4668 50.0977 3.4668L26.3184 3.4668C24.6094 3.4668 23.584 2.29492 23.584 0.634766L23.584-9.81445C23.584-11.6211 24.6094-12.7441 26.3184-12.7441Z"/>
  </g>
  <g id="Black-S" transform="matrix(1 0 0 1 2887.7 696)">
   <path d="M9.76562-7.08008C9.76562 2.49023 15.4297 8.1543 25 8.1543L66.4062 8.1543C75.9766 8.1543 81.6406 2.49023 81.6406-7.08008L81.6406-63.3301C81.6406-72.9004 75.9766-78.5645 66.4062-78.5645L25-78.5645C15.4297-78.5645 9.76562-72.9004 9.76562-63.3301ZM30.0293-62.5488L50.6348-62.5488C52.7832-62.5488 54.2969-61.1328 54.2969-59.0332L54.2969-54.4434C54.2969-52.3438 52.7832-50.9277 50.6348-50.9277L30.0293-50.9277C27.8809-50.9277 26.416-52.3438 26.416-54.4434L26.416-59.0332C26.416-61.1328 27.8809-62.5488 30.0293-62.5488ZM30.0293-48.3887L61.377-48.3887C63.5254-48.3887 64.9902-46.9238 64.9902-44.8242L64.9902-40.2832C64.9902-38.1348 63.5254-36.7188 61.377-36.7188L30.0293-36.7188C27.8809-36.7188 26.416-38.1348 26.416-40.2832L26.416-44.8242C26.416-46.9238 27.8809-48.3887 30.0293-48.3887ZM30.0293-34.2285L54.7363-34.2285C56.8848-34.2285 58.3008-32.8613 58.3008-30.7129L58.3008-26.123C58.3008-24.0234 56.8848-22.5586 54.7363-22.5586L30.0293-22.5586C27.8809-22.5586 26.416-24.0234 26.416-26.123L26.416-30.7129C26.416-32.8613 27.8809-34.2285 30.0293-34.2285ZM30.0293-20.0195L46.4844-20.0195C48.6328-20.0195 50.1465-18.6035 50.1465-16.5039L50.1465-11.9141C50.1465-9.81445 48.6328-8.39844 46.4844-8.39844L30.0293-8.39844C27.8809-8.39844 26.416-9.81445 26.416-11.9141L26.416-16.5039C26.416-18.6035 27.8809-20.0195 30.0293-20.0195Z"/>
  </g>
  <g id="Heavy-S" transform="matrix(1 0 0 1 2591.79 696)">
   <path d="M9.76562-6.93359C9.76562 2.34375 15.0391 7.61719 24.3164 7.61719L65.4785 7.61719C74.7559 7.61719 80.0293 2.34375 80.0293-6.93359L80.0293-63.4766C80.0293-72.7539 74.7559-78.0762 65.4785-78.0762L24.3164-78.0762C15.0391-78.0762 9.76562-72.7539 9.76562-63.4766ZM28.7109-62.6953L49.9023-62.6953C51.9531-62.6953 53.3203-61.377 53.3203-59.375L53.3203-54.4434C53.3203-52.4414 51.9531-51.123 49.9023-51.123L28.7109-51.123C26.709-51.123 25.3906-52.4414 25.3906-54.4434L25.3906-59.375C25.3906-61.377 26.709-62.6953 28.7109-62.6953ZM28.7109-48.3887L61.084-48.3887C63.0859-48.3887 64.4043-47.0215 64.4043-45.0195L64.4043-40.1367C64.4043-38.0859 63.0859-36.7676 61.084-36.7676L28.7109-36.7676C26.709-36.7676 25.3906-38.0859 25.3906-40.1367L25.3906-45.0195C25.3906-47.0215 26.709-48.3887 28.7109-48.3887ZM28.7109-34.0332L54.541-34.0332C56.543-34.0332 57.8613-32.7637 57.8613-30.7617L57.8613-25.8301C57.8613-23.8281 56.543-22.4609 54.541-22.4609L28.7109-22.4609C26.709-22.4609 25.3906-23.8281 25.3906-25.8301L25.3906-30.7617C25.3906-32.7637 26.709-34.0332 28.7109-34.0332ZM28.7109-19.7266L45.3125-19.7266C47.3145-19.7266 48.7305-18.4082 48.7305-16.4062L48.7305-11.4746C48.7305-9.47266 47.3145-8.1543 45.3125-8.1543L28.7109-8.1543C26.709-8.1543 25.3906-9.47266 25.3906-11.4746L25.3906-16.4062C25.3906-18.4082 26.709-19.7266 28.7109-19.7266Z"/>
  </g>
  <g id="Bold-S" transform="matrix(1 0 0 1 2295.98 696)">
   <path d="M9.76562-6.78711C9.76562 2.14844 14.6484 7.03125 23.5352 7.03125L64.4531 7.03125C73.3398 7.03125 78.2227 2.14844 78.2227-6.78711L78.2227-63.623C78.2227-72.5586 73.3398-77.4902 64.4531-77.4902L23.5352-77.4902C14.6484-77.4902 9.76562-72.5586 9.76562-63.623ZM27.2949-62.8418L49.1211-62.8418C50.9766-62.8418 52.1973-61.6211 52.1973-59.7656L52.1973-54.4434C52.1973-52.5879 50.9766-51.3672 49.1211-51.3672L27.2949-51.3672C25.3906-51.3672 24.2188-52.5879 24.2188-54.4434L24.2188-59.7656C24.2188-61.6211 25.3906-62.8418 27.2949-62.8418ZM27.2949-48.3887L60.7422-48.3887C62.5977-48.3887 63.7695-47.1191 63.7695-45.2637L63.7695-39.9902C63.7695-38.0859 62.5977-36.8652 60.7422-36.8652L27.2949-36.8652C25.3906-36.8652 24.2188-38.0859 24.2188-39.9902L24.2188-45.2637C24.2188-47.1191 25.3906-48.3887 27.2949-48.3887ZM27.2949-33.8867L54.3457-33.8867C56.2012-33.8867 57.373-32.7148 57.373-30.8105L57.373-25.4883C57.373-23.584 56.2012-22.3633 54.3457-22.3633L27.2949-22.3633C25.3906-22.3633 24.2188-23.584 24.2188-25.4883L24.2188-30.8105C24.2188-32.7148 25.3906-33.8867 27.2949-33.8867ZM27.2949-19.3359L44.043-19.3359C45.8984-19.3359 47.1191-18.1152 47.1191-16.2598L47.1191-10.9375C47.1191-9.08203 45.8984-7.86133 44.043-7.86133L27.2949-7.86133C25.3906-7.86133 24.2188-9.08203 24.2188-10.9375L24.2188-16.2598C24.2188-18.1152 25.3906-19.3359 27.2949-19.3359Z"/>
  </g>
  <g id="Semibold-S" transform="matrix(1 0 0 1 1999.91 696)">
   <path d="M9.76562-6.68945C9.76562 2.00195 14.3555 6.64062 22.998 6.64062L63.7695 6.64062C72.4121 6.64062 76.9531 2.00195 76.9531-6.68945L76.9531-63.7695C76.9531-72.4609 72.4121-77.0996 63.7695-77.0996L22.998-77.0996C14.3555-77.0996 9.76562-72.4609 9.76562-63.7695ZM26.2695-62.9883L48.584-62.9883C50.293-62.9883 51.4648-61.8164 51.4648-60.0098L51.4648-54.4434C51.4648-52.6855 50.293-51.5137 48.584-51.5137L26.2695-51.5137C24.5117-51.5137 23.4375-52.6855 23.4375-54.4434L23.4375-60.0098C23.4375-61.8164 24.5117-62.9883 26.2695-62.9883ZM26.2695-48.3887L60.498-48.3887C62.2559-48.3887 63.3301-47.2168 63.3301-45.4102L63.3301-39.8438C63.3301-38.0371 62.2559-36.9141 60.498-36.9141L26.2695-36.9141C24.5117-36.9141 23.4375-38.0371 23.4375-39.8438L23.4375-45.4102C23.4375-47.2168 24.5117-48.3887 26.2695-48.3887ZM26.2695-33.7402L54.1504-33.7402C55.957-33.7402 57.0312-32.6172 57.0312-30.8105L57.0312-25.2441C57.0312-23.4375 55.957-22.3145 54.1504-22.3145L26.2695-22.3145C24.5117-22.3145 23.4375-23.4375 23.4375-25.2441L23.4375-30.8105C23.4375-32.6172 24.5117-33.7402 26.2695-33.7402ZM26.2695-19.0918L43.1152-19.0918C44.873-19.0918 45.9961-17.9688 45.9961-16.1621L45.9961-10.5957C45.9961-8.83789 44.873-7.66602 43.1152-7.66602L26.2695-7.66602C24.5117-7.66602 23.4375-8.83789 23.4375-10.5957L23.4375-16.1621C23.4375-17.9688 24.5117-19.0918 26.2695-19.0918Z"/>
  </g>
  <g id="Medium-S" transform="matrix(1 0 0 1 1703.66 696)">
   <path d="M9.76562-6.64062C9.76562 1.9043 14.1113 6.29883 22.5586 6.29883L63.2324 6.29883C71.6797 6.29883 76.0254 1.9043 76.0254-6.64062L76.0254-63.8672C76.0254-72.3633 71.6797-76.8066 63.2324-76.8066L22.5586-76.8066C14.1113-76.8066 9.76562-72.3633 9.76562-63.8672ZM25.5371-63.0371L48.1445-63.0371C49.8047-63.0371 50.8789-61.9629 50.8789-60.2539L50.8789-54.4922C50.8789-52.7344 49.8047-51.6602 48.1445-51.6602L25.5371-51.6602C23.8281-51.6602 22.8027-52.7344 22.8027-54.4922L22.8027-60.2539C22.8027-61.9629 23.8281-63.0371 25.5371-63.0371ZM25.5371-48.3398L60.3516-48.3398C62.0117-48.3398 62.9883-47.2656 62.9883-45.5566L62.9883-39.7949C62.9883-38.0371 62.0117-36.9629 60.3516-36.9629L25.5371-36.9629C23.8281-36.9629 22.8027-38.0371 22.8027-39.7949L22.8027-45.5566C22.8027-47.2656 23.8281-48.3398 25.5371-48.3398ZM25.5371-33.6426L54.0527-33.6426C55.7617-33.6426 56.7383-32.5684 56.7383-30.8594L56.7383-25.0488C56.7383-23.3398 55.7617-22.2656 54.0527-22.2656L25.5371-22.2656C23.8281-22.2656 22.8027-23.3398 22.8027-25.0488L22.8027-30.8594C22.8027-32.5684 23.8281-33.6426 25.5371-33.6426ZM25.5371-18.9453L42.4316-18.9453C44.0918-18.9453 45.166-17.8223 45.166-16.1133L45.166-10.3516C45.166-8.64258 44.0918-7.51953 42.4316-7.51953L25.5371-7.51953C23.8281-7.51953 22.8027-8.64258 22.8027-10.3516L22.8027-16.1133C22.8027-17.8223 23.8281-18.9453 25.5371-18.9453Z"/>
  </g>
  <g id="Regular-S" transform="matrix(1 0 0 1 1407.56 696)">
   <path d="M9.76562-6.54297C9.76562 1.80664 13.8184 5.9082 22.0215 5.9082L62.5 5.9082C70.7031 5.9082 74.8047 1.80664 74.8047-6.54297L74.8047-63.9648C74.8047-72.2656 70.7031-76.416 62.5-76.416L22.0215-76.416C13.8184-76.416 9.76562-72.2656 9.76562-63.9648ZM24.5605-63.1836L47.6074-63.1836C49.1699-63.1836 50.1465-62.1582 50.1465-60.498L50.1465-54.4922C50.1465-52.832 49.1699-51.8066 47.6074-51.8066L24.5605-51.8066C22.9492-51.8066 22.0215-52.832 22.0215-54.4922L22.0215-60.498C22.0215-62.1582 22.9492-63.1836 24.5605-63.1836ZM24.5605-48.3398L60.1074-48.3398C61.6699-48.3398 62.5977-47.3145 62.5977-45.7031L62.5977-39.6484C62.5977-38.0371 61.6699-37.0117 60.1074-37.0117L24.5605-37.0117C22.9492-37.0117 22.0215-38.0371 22.0215-39.6484L22.0215-45.7031C22.0215-47.3145 22.9492-48.3398 24.5605-48.3398ZM24.5605-33.4961L53.9062-33.4961C55.5176-33.4961 56.4453-32.5195 56.4453-30.9082L56.4453-24.8047C56.4453-23.1445 55.5176-22.168 53.9062-22.168L24.5605-22.168C22.9492-22.168 22.0215-23.1445 22.0215-24.8047L22.0215-30.9082C22.0215-32.5195 22.9492-33.4961 24.5605-33.4961ZM24.5605-18.7012L41.5527-18.7012C43.1152-18.7012 44.0918-17.6758 44.0918-16.0156L44.0918-10.0098C44.0918-8.34961 43.1152-7.32422 41.5527-7.32422L24.5605-7.32422C22.9492-7.32422 22.0215-8.34961 22.0215-10.0098L22.0215-16.0156C22.0215-17.6758 22.9492-18.7012 24.5605-18.7012Z"/>
  </g>
  <g id="Light-S" transform="matrix(1 0 0 1 1111.48 696)">
   <path d="M9.76562-5.95703C9.76562 1.75781 13.623 5.66406 21.2891 5.66406L62.0605 5.66406C69.6777 5.66406 73.5352 1.75781 73.5352-5.95703L73.5352-64.4531C73.5352-72.168 69.6777-76.123 62.0605-76.123L21.2891-76.123C13.623-76.123 9.76562-72.168 9.76562-64.4531ZM23.291-63.916L47.1191-63.916C48.584-63.916 49.5117-62.9395 49.5117-61.3281L49.5117-54.6387C49.5117-53.125 48.584-52.0996 47.1191-52.0996L23.291-52.0996C21.7773-52.0996 20.8984-53.125 20.8984-54.6387L20.8984-61.3281C20.8984-62.9395 21.7773-63.916 23.291-63.916ZM23.291-48.7305L60.0586-48.7305C61.5723-48.7305 62.4512-47.7539 62.4512-46.1914L62.4512-39.502C62.4512-37.9395 61.5723-36.9629 60.0586-36.9629L23.291-36.9629C21.7773-36.9629 20.8984-37.9395 20.8984-39.4531L20.8984-46.1914C20.8984-47.7539 21.7773-48.7305 23.291-48.7305ZM23.291-33.4961L53.6133-33.4961C55.127-33.4961 56.0059-32.5684 56.0059-31.0547L56.0059-24.2676C56.0059-22.7051 55.127-21.7773 53.6133-21.7773L23.291-21.7773C21.7773-21.7773 20.8984-22.7051 20.8984-24.2676L20.8984-31.0547C20.8984-32.5684 21.7773-33.4961 23.291-33.4961ZM23.291-18.3594L40.8203-18.3594C42.2852-18.3594 43.2129-17.3828 43.2129-15.8203L43.2129-9.08203C43.2129-7.56836 42.2852-6.5918 40.8203-6.5918L23.291-6.5918C21.7773-6.5918 20.8984-7.56836 20.8984-9.08203L20.8984-15.8203C20.8984-17.3828 21.7773-18.3594 23.291-18.3594Z"/>
  </g>
  <g id="Thin-S" transform="matrix(1 0 0 1 815.578 696)">
   <path d="M9.76562-5.22461C9.76562 1.75781 13.3789 5.32227 20.2637 5.32227L61.4258 5.32227C68.3594 5.32227 71.9238 1.75781 71.9238-5.22461L71.9238-65.1367C71.9238-72.0703 68.3594-75.6836 61.4258-75.6836L20.2637-75.6836C13.3789-75.6836 9.76562-72.0703 9.76562-65.1367ZM21.6797-64.8438L46.4844-64.8438C47.8027-64.8438 48.6816-63.9648 48.6816-62.4512L48.6816-54.8828C48.6816-53.4668 47.8027-52.5391 46.4844-52.5391L21.6797-52.5391C20.3125-52.5391 19.4336-53.4668 19.4336-54.8828L19.4336-62.4512C19.4336-63.9648 20.3125-64.8438 21.6797-64.8438ZM21.6797-49.2188L60.0586-49.2188C61.4258-49.2188 62.2559-48.291 62.2559-46.8262L62.2559-39.2578C62.2559-37.8418 61.4258-36.8652 60.0586-36.8652L21.6797-36.8652C20.3125-36.8652 19.4336-37.8418 19.4336-39.209L19.4336-46.8262C19.4336-48.291 20.3125-49.2188 21.6797-49.2188ZM21.6797-33.5449L53.2715-33.5449C54.6387-33.5449 55.4688-32.6172 55.4688-31.2012L55.4688-23.584C55.4688-22.168 54.6387-21.1914 53.2715-21.1914L21.6797-21.1914C20.3125-21.1914 19.4336-22.168 19.4336-23.584L19.4336-31.2012C19.4336-32.6172 20.3125-33.5449 21.6797-33.5449ZM21.6797-17.9199L39.8926-17.9199C41.2109-17.9199 42.0898-16.9922 42.0898-15.5273L42.0898-7.91016C42.0898-6.54297 41.2109-5.56641 39.8926-5.56641L21.6797-5.56641C20.3125-5.56641 19.4336-6.54297 19.4336-7.91016L19.4336-15.5273C19.4336-16.9922 20.3125-17.9199 21.6797-17.9199Z"/>
  </g>
  <g id="Ultralight-S" transform="matrix(1 0 0 1 519.281 696)">
   <path d="M9.76562-4.83398C9.76562 1.70898 13.2324 5.17578 19.7266 5.17578L61.084 5.17578C67.627 5.17578 71.0938 1.70898 71.0938-4.83398L71.0938-65.4785C71.0938-72.0215 67.627-75.4883 61.084-75.4883L19.7266-75.4883C13.2324-75.4883 9.76562-72.0215 9.76562-65.4785ZM20.8496-65.3809L46.1426-65.3809C47.4121-65.3809 48.2422-64.502 48.2422-63.0371L48.2422-54.9805C48.2422-53.6621 47.4121-52.7344 46.1426-52.7344L20.8496-52.7344C19.5312-52.7344 18.7012-53.6621 18.7012-54.9805L18.7012-63.0371C18.7012-64.502 19.5312-65.3809 20.8496-65.3809ZM20.8496-49.4629L60.0098-49.4629C61.3281-49.4629 62.1582-48.584 62.1582-47.168L62.1582-39.1602C62.1582-37.7441 61.3281-36.8164 60.0098-36.8164L20.8496-36.8164C19.5312-36.8164 18.7012-37.7441 18.7012-39.1113L18.7012-47.168C18.7012-48.584 19.5312-49.4629 20.8496-49.4629ZM20.8496-33.5449L53.0762-33.5449C54.3457-33.5449 55.1758-32.666 55.1758-31.3477L55.1758-23.2422C55.1758-21.8262 54.3457-20.8984 53.0762-20.8984L20.8496-20.8984C19.5312-20.8984 18.7012-21.8262 18.7012-23.2422L18.7012-31.3477C18.7012-32.666 19.5312-33.5449 20.8496-33.5449ZM20.8496-17.6758L39.3555-17.6758C40.6738-17.6758 41.5039-16.7969 41.5039-15.3809L41.5039-7.32422C41.5039-6.00586 40.6738-5.0293 39.3555-5.0293L20.8496-5.0293C19.5312-5.0293 18.7012-6.00586 18.7012-7.32422L18.7012-15.3809C18.7012-16.7969 19.5312-17.6758 20.8496-17.6758Z"/>
  </g>
 </g>
</svg>
