<?xml version="1.0" encoding="UTF-8"?>
<!--Generator: Apple Native CoreSVG 149-->
<!DOCTYPE svg
PUBLIC "-//W3C//DTD SVG 1.1//EN"
       "http://www.w3.org/Graphics/SVG/1.1/DTD/svg11.dtd">
<svg version="1.1" xmlns="http://www.w3.org/2000/svg" xmlns:xlink="http://www.w3.org/1999/xlink" width="3300" height="2200">
 <!--glyph: "uni1008C9.medium", point size: 100.000000, font version: "Version 16.0d18e1", template writer version: "8"-->
 <g id="Notes">
  <rect height="2200" id="artboard" style="fill:white;opacity:1" width="3300" x="0" y="0"/>
  <line id="" style="fill:none;stroke:black;opacity:1;stroke-width:0.5;" x1="263" x2="3036" y1="292" y2="292"/>
  <text style="stroke:none;fill:black;font-family:-apple-system,&quot;SF Pro Display&quot;,&quot;SF Pro Text&quot;,Helvetica,sans-serif;font-weight:bold;" transform="matrix(1 0 0 1 263 322)">Weight/Scale Variations</text>
  <text style="stroke:none;fill:black;font-family:-apple-system,&quot;SF Pro Display&quot;,&quot;SF Pro Text&quot;,Helvetica,sans-serif;text-anchor:middle;" transform="matrix(1 0 0 1 559.711 322)">Ultralight</text>
  <text style="stroke:none;fill:black;font-family:-apple-system,&quot;SF Pro Display&quot;,&quot;SF Pro Text&quot;,Helvetica,sans-serif;text-anchor:middle;" transform="matrix(1 0 0 1 856.422 322)">Thin</text>
  <text style="stroke:none;fill:black;font-family:-apple-system,&quot;SF Pro Display&quot;,&quot;SF Pro Text&quot;,Helvetica,sans-serif;text-anchor:middle;" transform="matrix(1 0 0 1 1153.13 322)">Light</text>
  <text style="stroke:none;fill:black;font-family:-apple-system,&quot;SF Pro Display&quot;,&quot;SF Pro Text&quot;,Helvetica,sans-serif;text-anchor:middle;" transform="matrix(1 0 0 1 1449.84 322)">Regular</text>
  <text style="stroke:none;fill:black;font-family:-apple-system,&quot;SF Pro Display&quot;,&quot;SF Pro Text&quot;,Helvetica,sans-serif;text-anchor:middle;" transform="matrix(1 0 0 1 1746.56 322)">Medium</text>
  <text style="stroke:none;fill:black;font-family:-apple-system,&quot;SF Pro Display&quot;,&quot;SF Pro Text&quot;,Helvetica,sans-serif;text-anchor:middle;" transform="matrix(1 0 0 1 2043.27 322)">Semibold</text>
  <text style="stroke:none;fill:black;font-family:-apple-system,&quot;SF Pro Display&quot;,&quot;SF Pro Text&quot;,Helvetica,sans-serif;text-anchor:middle;" transform="matrix(1 0 0 1 2339.98 322)">Bold</text>
  <text style="stroke:none;fill:black;font-family:-apple-system,&quot;SF Pro Display&quot;,&quot;SF Pro Text&quot;,Helvetica,sans-serif;text-anchor:middle;" transform="matrix(1 0 0 1 2636.69 322)">Heavy</text>
  <text style="stroke:none;fill:black;font-family:-apple-system,&quot;SF Pro Display&quot;,&quot;SF Pro Text&quot;,Helvetica,sans-serif;text-anchor:middle;" transform="matrix(1 0 0 1 2933.4 322)">Black</text>
  <line id="" style="fill:none;stroke:black;opacity:1;stroke-width:0.5;" x1="263" x2="3036" y1="1903" y2="1903"/>
  <g id="" transform="matrix(1 0 0 1 263 1933)">
   <path d="M9.24805 0.830078C13.5547 0.830078 17.1387-2.74414 17.1387-7.05078C17.1387-11.3574 13.5449-14.9316 9.23828-14.9316C4.94141-14.9316 1.36719-11.3574 1.36719-7.05078C1.36719-2.74414 4.95117 0.830078 9.24805 0.830078ZM9.24805-0.654297C5.70312-0.654297 2.87109-3.49609 2.87109-7.05078C2.87109-10.6055 5.69336-13.4473 9.23828-13.4473C12.793-13.4473 15.6348-10.6055 15.6445-7.05078C15.6543-3.49609 12.8027-0.654297 9.24805-0.654297ZM6.39648-6.31836L8.50586-6.31836L8.50586-4.19922C8.50586-3.75977 8.79883-3.45703 9.22852-3.45703C9.67773-3.45703 9.9707-3.75977 9.9707-4.19922L9.9707-6.31836L12.0996-6.31836C12.5391-6.31836 12.8418-6.61133 12.8418-7.04102C12.8418-7.48047 12.5391-7.7832 12.0996-7.7832L9.9707-7.7832L9.9707-9.89258C9.9707-10.3418 9.67773-10.6445 9.22852-10.6445C8.79883-10.6445 8.50586-10.3418 8.50586-9.89258L8.50586-7.7832L6.39648-7.7832C5.94727-7.7832 5.64453-7.48047 5.64453-7.04102C5.64453-6.61133 5.94727-6.31836 6.39648-6.31836Z"/>
  </g>
  <g id="" transform="matrix(1 0 0 1 281.506 1933)">
   <path d="M11.709 2.91016C17.1582 2.91016 21.6699-1.61133 21.6699-7.05078C21.6699-12.5 17.1484-17.0117 11.6992-17.0117C6.25977-17.0117 1.74805-12.5 1.74805-7.05078C1.74805-1.61133 6.26953 2.91016 11.709 2.91016ZM11.709 1.25C7.09961 1.25 3.41797-2.44141 3.41797-7.05078C3.41797-11.6602 7.08984-15.3516 11.6992-15.3516C16.3086-15.3516 20-11.6602 20.0098-7.05078C20.0195-2.44141 16.3184 1.25 11.709 1.25ZM7.98828-6.23047L10.8789-6.23047L10.8789-3.32031C10.8789-2.83203 11.2109-2.5 11.6895-2.5C12.1777-2.5 12.5195-2.83203 12.5195-3.32031L12.5195-6.23047L15.4297-6.23047C15.918-6.23047 16.25-6.5625 16.25-7.04102C16.25-7.5293 15.918-7.87109 15.4297-7.87109L12.5195-7.87109L12.5195-10.7617C12.5195-11.2695 12.1777-11.6016 11.6895-11.6016C11.2109-11.6016 10.8789-11.2598 10.8789-10.7617L10.8789-7.87109L7.98828-7.87109C7.48047-7.87109 7.14844-7.5293 7.14844-7.04102C7.14844-6.5625 7.49023-6.23047 7.98828-6.23047Z"/>
  </g>
  <g id="" transform="matrix(1 0 0 1 304.924 1933)">
   <path d="M14.9707 5.66406C21.9336 5.66406 27.6953-0.0976562 27.6953-7.05078C27.6953-14.0137 21.9238-19.7754 14.9609-19.7754C8.00781-19.7754 2.25586-14.0137 2.25586-7.05078C2.25586-0.0976562 8.01758 5.66406 14.9707 5.66406ZM14.9707 3.84766C8.93555 3.84766 4.08203-1.01562 4.08203-7.05078C4.08203-13.0957 8.92578-17.9492 14.9609-17.9492C21.0059-17.9492 25.8594-13.0957 25.8691-7.05078C25.8789-1.01562 21.0156 3.84766 14.9707 3.84766ZM10.0586-6.14258L14.0625-6.14258L14.0625-2.12891C14.0625-1.5918 14.4336-1.2207 14.9512-1.2207C15.4883-1.2207 15.8594-1.5918 15.8594-2.12891L15.8594-6.14258L19.8828-6.14258C20.4102-6.14258 20.791-6.51367 20.791-7.03125C20.791-7.56836 20.4199-7.94922 19.8828-7.94922L15.8594-7.94922L15.8594-11.9531C15.8594-12.5098 15.4883-12.8809 14.9512-12.8809C14.4336-12.8809 14.0625-12.5 14.0625-11.9531L14.0625-7.94922L10.0586-7.94922C9.50195-7.94922 9.13086-7.56836 9.13086-7.03125C9.13086-6.51367 9.51172-6.14258 10.0586-6.14258Z"/>
  </g>
  <text style="stroke:none;fill:black;font-family:-apple-system,&quot;SF Pro Display&quot;,&quot;SF Pro Text&quot;,Helvetica,sans-serif;font-weight:bold;" transform="matrix(1 0 0 1 263 1953)">Design Variations</text>
  <text style="stroke:none;fill:black;font-family:-apple-system,&quot;SF Pro Display&quot;,&quot;SF Pro Text&quot;,Helvetica,sans-serif;" transform="matrix(1 0 0 1 263 1971)">Symbols are supported in up to nine weights and three scales.</text>
  <text style="stroke:none;fill:black;font-family:-apple-system,&quot;SF Pro Display&quot;,&quot;SF Pro Text&quot;,Helvetica,sans-serif;" transform="matrix(1 0 0 1 263 1989)">For optimal layout with text and other symbols, vertically align</text>
  <text style="stroke:none;fill:black;font-family:-apple-system,&quot;SF Pro Display&quot;,&quot;SF Pro Text&quot;,Helvetica,sans-serif;" transform="matrix(1 0 0 1 263 2007)">symbols with the adjacent text.</text>
  <line id="" style="fill:none;stroke:#00AEEF;stroke-width:0.5;opacity:1.0;" x1="776" x2="776" y1="1919" y2="1933"/>
  <g id="" transform="matrix(1 0 0 1 776 1933)">
   <path d="M3.31055 0.126953C3.82812 0.126953 4.08203-0.0683594 4.26758-0.605469L5.52734-4.0625L11.2891-4.0625L12.5488-0.605469C12.7344-0.0683594 12.9883 0.126953 13.4961 0.126953C14.0137 0.126953 14.3457-0.185547 14.3457-0.673828C14.3457-0.839844 14.3164-0.986328 14.2383-1.20117L9.6582-13.3887C9.43359-13.9941 9.0332-14.2871 8.4082-14.2871C7.80273-14.2871 7.39258-13.9941 7.17773-13.3984L2.59766-1.19141C2.51953-0.976562 2.49023-0.830078 2.49023-0.664062C2.49023-0.175781 2.80273 0.126953 3.31055 0.126953ZM6.00586-5.53711L8.37891-12.1094L8.42773-12.1094L10.8008-5.53711Z"/>
  </g>
  <line id="" style="fill:none;stroke:#00AEEF;stroke-width:0.5;opacity:1.0;" x1="792.836" x2="792.836" y1="1919" y2="1933"/>
  <text style="stroke:none;fill:black;font-family:-apple-system,&quot;SF Pro Display&quot;,&quot;SF Pro Text&quot;,Helvetica,sans-serif;font-weight:bold;" transform="matrix(1 0 0 1 776 1953)">Margins</text>
  <text style="stroke:none;fill:black;font-family:-apple-system,&quot;SF Pro Display&quot;,&quot;SF Pro Text&quot;,Helvetica,sans-serif;" transform="matrix(1 0 0 1 776 1971)">Leading and trailing margins on the left and right side of each symbol</text>
  <text style="stroke:none;fill:black;font-family:-apple-system,&quot;SF Pro Display&quot;,&quot;SF Pro Text&quot;,Helvetica,sans-serif;" transform="matrix(1 0 0 1 776 1989)">can be adjusted by modifying the x-location of the margin guidelines.</text>
  <text style="stroke:none;fill:black;font-family:-apple-system,&quot;SF Pro Display&quot;,&quot;SF Pro Text&quot;,Helvetica,sans-serif;" transform="matrix(1 0 0 1 776 2007)">Modifications are automatically applied proportionally to all</text>
  <text style="stroke:none;fill:black;font-family:-apple-system,&quot;SF Pro Display&quot;,&quot;SF Pro Text&quot;,Helvetica,sans-serif;" transform="matrix(1 0 0 1 776 2025)">scales and weights.</text>
  <g id="" transform="matrix(1 0 0 1 1289 1933)">
   <path d="M2.8418 1.86523L4.54102 3.57422C5.40039 4.44336 6.38672 4.38477 7.31445 3.35938L17.4902-7.85156C17.7539-7.76367 18.0273-7.7832 18.3398-7.8418L19.4043-8.03711L20.0684-7.36328L20.0293-6.80664C19.9902-6.30859 20.1172-5.92773 20.6055-5.44922L21.3672-4.70703C21.8457-4.22852 22.4609-4.19922 22.9297-4.66797L25.8398-7.58789C26.3086-8.05664 26.2891-8.65234 25.8105-9.13086L25.0391-9.89258C24.5605-10.3711 24.1895-10.5273 23.7109-10.4883L23.1348-10.4395L22.4902-11.0742L22.7344-12.1973C22.8613-12.7637 22.7051-13.2031 22.1191-13.7891L19.9219-15.9766C16.582-19.2969 12.1484-19.2188 9.25781-16.3281C8.83789-15.918 8.80859-15.3418 9.04297-14.9512C9.27734-14.5898 9.73633-14.3555 10.3809-14.5215C11.8457-14.8633 13.3691-14.9219 14.7949-13.9844L14.209-12.5293C14.0137-12.0508 13.9844-11.6504 14.1113-11.2891L3.04688-0.898438C2.06055 0.0195312 1.98242 0.996094 2.8418 1.86523ZM10.752-15.957C13.1836-17.7344 16.4746-17.4316 18.7012-15.2051L21.1328-12.793C21.3672-12.5586 21.4062-12.373 21.3379-12.0312L21.0156-10.5469L22.5195-9.0625L23.5059-9.12109C23.7598-9.13086 23.8379-9.11133 24.0332-8.91602L24.6094-8.33984L22.168-5.89844L21.5918-6.47461C21.3965-6.66992 21.3672-6.74805 21.377-7.01172L21.4453-7.98828L19.9512-9.47266L18.4277-9.21875C18.1055-9.15039 17.959-9.17969 17.7148-9.41406L15.7129-11.416C15.459-11.6504 15.4297-11.8164 15.5859-12.1875L16.4648-14.2773C14.9023-15.7324 12.8711-16.3574 10.8398-15.7617C10.6836-15.7227 10.625-15.8496 10.752-15.957ZM5.27344 2.30469L4.10156 1.14258C3.63281 0.683594 3.74023 0.341797 4.14062-0.0195312L14.9512-10.1953L16.416-8.71094L6.42578 2.27539C6.07422 2.67578 5.74219 2.77344 5.27344 2.30469Z"/>
  </g>
  <text style="stroke:none;fill:black;font-family:-apple-system,&quot;SF Pro Display&quot;,&quot;SF Pro Text&quot;,Helvetica,sans-serif;font-weight:bold;" transform="matrix(1 0 0 1 1289 1953)">Exporting</text>
  <text style="stroke:none;fill:black;font-family:-apple-system,&quot;SF Pro Display&quot;,&quot;SF Pro Text&quot;,Helvetica,sans-serif;" transform="matrix(1 0 0 1 1289 1971)">Symbols should be outlined when exporting to ensure the</text>
  <text style="stroke:none;fill:black;font-family:-apple-system,&quot;SF Pro Display&quot;,&quot;SF Pro Text&quot;,Helvetica,sans-serif;" transform="matrix(1 0 0 1 1289 1989)">design is preserved when submitting to Xcode.</text>
  <text id="template-version" style="stroke:none;fill:black;font-family:-apple-system,&quot;SF Pro Display&quot;,&quot;SF Pro Text&quot;,Helvetica,sans-serif;text-anchor:end;" transform="matrix(1 0 0 1 3036 1933)">Template v.2.0</text>
  <text style="stroke:none;fill:black;font-family:-apple-system,&quot;SF Pro Display&quot;,&quot;SF Pro Text&quot;,Helvetica,sans-serif;text-anchor:end;" transform="matrix(1 0 0 1 3036 1951)">Requires Xcode 12 or greater</text>
  <text style="stroke:none;fill:black;font-family:-apple-system,&quot;SF Pro Display&quot;,&quot;SF Pro Text&quot;,Helvetica,sans-serif;text-anchor:end;" transform="matrix(1 0 0 1 3036 1969)">Generated from chart.bar.xaxis</text>
  <text style="stroke:none;fill:black;font-family:-apple-system,&quot;SF Pro Display&quot;,&quot;SF Pro Text&quot;,Helvetica,sans-serif;text-anchor:end;" transform="matrix(1 0 0 1 3036 1987)">Typeset at 100 points</text>
  <text style="stroke:none;fill:black;font-family:-apple-system,&quot;SF Pro Display&quot;,&quot;SF Pro Text&quot;,Helvetica,sans-serif;" transform="matrix(1 0 0 1 263 726)">Small</text>
  <text style="stroke:none;fill:black;font-family:-apple-system,&quot;SF Pro Display&quot;,&quot;SF Pro Text&quot;,Helvetica,sans-serif;" transform="matrix(1 0 0 1 263 1156)">Medium</text>
  <text style="stroke:none;fill:black;font-family:-apple-system,&quot;SF Pro Display&quot;,&quot;SF Pro Text&quot;,Helvetica,sans-serif;" transform="matrix(1 0 0 1 263 1586)">Large</text>
 </g>
 <g id="Guides">
  <g id="H-reference" style="fill:#27AAE1;stroke:none;" transform="matrix(1 0 0 1 339 696)">
   <path d="M0.976562 0L3.66211 0L12.9883-24.4629L45.752-24.4629L55.127 0L57.7637 0L30.6152-70.459L28.125-70.459ZM29.3457-67.1387L29.4434-67.1387L44.873-26.709L13.8672-26.709Z"/>
  </g>
  <line id="Baseline-S" style="fill:none;stroke:#27AAE1;opacity:1;stroke-width:0.5;" x1="263" x2="3036" y1="696" y2="696"/>
  <line id="Capline-S" style="fill:none;stroke:#27AAE1;opacity:1;stroke-width:0.5;" x1="263" x2="3036" y1="625.541" y2="625.541"/>
  <g id="H-reference" style="fill:#27AAE1;stroke:none;" transform="matrix(1 0 0 1 339 1126)">
   <path d="M0.976562 0L3.66211 0L12.9883-24.4629L45.752-24.4629L55.127 0L57.7637 0L30.6152-70.459L28.125-70.459ZM29.3457-67.1387L29.4434-67.1387L44.873-26.709L13.8672-26.709Z"/>
  </g>
  <line id="Baseline-M" style="fill:none;stroke:#27AAE1;opacity:1;stroke-width:0.5;" x1="263" x2="3036" y1="1126" y2="1126"/>
  <line id="Capline-M" style="fill:none;stroke:#27AAE1;opacity:1;stroke-width:0.5;" x1="263" x2="3036" y1="1055.54" y2="1055.54"/>
  <g id="H-reference" style="fill:#27AAE1;stroke:none;" transform="matrix(1 0 0 1 339 1556)">
   <path d="M0.976562 0L3.66211 0L12.9883-24.4629L45.752-24.4629L55.127 0L57.7637 0L30.6152-70.459L28.125-70.459ZM29.3457-67.1387L29.4434-67.1387L44.873-26.709L13.8672-26.709Z"/>
  </g>
  <line id="Baseline-L" style="fill:none;stroke:#27AAE1;opacity:1;stroke-width:0.5;" x1="263" x2="3036" y1="1556" y2="1556"/>
  <line id="Capline-L" style="fill:none;stroke:#27AAE1;opacity:1;stroke-width:0.5;" x1="263" x2="3036" y1="1485.54" y2="1485.54"/>
  <line id="left-margin" style="fill:none;stroke:#00AEEF;stroke-width:0.5;opacity:1.0;" x1="1386.47" x2="1386.47" y1="1030.79" y2="1150.12"/>
  <line id="right-margin" style="fill:none;stroke:#00AEEF;stroke-width:0.5;opacity:1.0;" x1="1513.22" x2="1513.22" y1="1030.79" y2="1150.12"/>
 </g>
 <g id="Symbols">
  <g id="Black-L" transform="matrix(1 0 0 1 2840.92 1556)">
   <path d="M61.1328-9.76562C61.1328-4.83398 64.3555-1.61133 69.2383-1.61133L81.0547-1.61133C85.9375-1.61133 89.1113-4.83398 89.1113-9.76562L89.1113-82.1289C89.1113-87.0605 85.9375-90.332 81.0547-90.332L69.2383-90.332C64.3555-90.332 61.1328-87.0605 61.1328-82.1289ZM95.8008-9.76562C95.8008-4.83398 98.9258-1.61133 103.809-1.61133L115.771-1.61133C120.557-1.61133 123.779-4.83398 123.779-9.76562L123.779-66.3086C123.779-71.2891 120.557-74.5117 115.771-74.5117L103.809-74.5117C98.9258-74.5117 95.8008-71.2891 95.8008-66.3086ZM26.416-9.76562C26.416-4.83398 29.6387-1.61133 34.4727-1.61133L46.3379-1.61133C51.1719-1.61133 54.3945-4.83398 54.3945-9.76562L54.3945-55.1758C54.3945-60.1074 51.1719-63.3789 46.3379-63.3789L34.4727-63.3789C29.6387-63.3789 26.416-60.1074 26.416-55.1758ZM130.518-9.76562C130.518-4.83398 133.74-1.61133 138.574-1.61133L150.439-1.61133C155.273-1.61133 158.496-4.83398 158.496-9.76562L158.496-44.043C158.496-49.0234 155.273-52.2949 150.439-52.2949L138.574-52.2949C133.74-52.2949 130.518-49.0234 130.518-44.043ZM16.0645 18.75C16.0645 24.707 20.5566 28.8574 26.416 28.8574L158.545 28.8574C164.404 28.8574 168.896 24.707 168.896 18.75C168.896 12.7441 164.404 8.59375 158.545 8.59375L26.416 8.59375C20.5566 8.59375 16.0645 12.7441 16.0645 18.75Z"/>
  </g>
  <g id="Heavy-L" transform="matrix(1 0 0 1 2546.72 1556)">
   <path d="M59.1797-7.27539C59.1797-2.73438 62.1094 0.195312 66.6504 0.195312L79.1016 0.195312C83.6426 0.195312 86.5234-2.73438 86.5234-7.27539L86.5234-81.9336C86.5234-86.4746 83.6426-89.4043 79.1016-89.4043L66.6504-89.4043C62.1094-89.4043 59.1797-86.4746 59.1797-81.9336ZM93.3594-7.27539C93.3594-2.73438 96.2402 0.195312 100.732 0.195312L113.33 0.195312C117.773 0.195312 120.752-2.73438 120.752-7.27539L120.752-66.6016C120.752-71.1426 117.773-74.0723 113.33-74.0723L100.732-74.0723C96.2402-74.0723 93.3594-71.1426 93.3594-66.6016ZM25-7.27539C25-2.73438 27.9297 0.195312 32.373 0.195312L44.9219 0.195312C49.3652 0.195312 52.3438-2.73438 52.3438-7.27539L52.3438-54.7852C52.3438-59.3262 49.3652-62.2559 44.9219-62.2559L32.373-62.2559C27.9297-62.2559 25-59.3262 25-54.7852ZM127.588-7.27539C127.588-2.73438 130.518 0.195312 135.01 0.195312L147.51 0.195312C151.953 0.195312 154.932-2.73438 154.932-7.27539L154.932-43.1152C154.932-47.6074 151.953-50.5859 147.51-50.5859L135.01-50.5859C130.518-50.5859 127.588-47.6074 127.588-43.1152ZM16.0645 18.7988C16.0645 23.9258 19.9707 27.5391 25 27.5391L154.932 27.5391C159.961 27.5391 163.867 23.9258 163.867 18.7988C163.867 13.6719 159.961 10.0586 154.932 10.0586L25 10.0586C19.9707 10.0586 16.0645 13.6719 16.0645 18.7988Z"/>
  </g>
  <g id="Bold-L" transform="matrix(1 0 0 1 2252.8 1556)">
   <path d="M56.9824-4.44336C56.9824-0.390625 59.668 2.19727 63.7207 2.19727L76.9531 2.19727C81.0059 2.19727 83.6426-0.390625 83.6426-4.44336L83.6426-81.7383C83.6426-85.791 81.0059-88.3789 76.9531-88.3789L63.7207-88.3789C59.668-88.3789 56.9824-85.791 56.9824-81.7383ZM90.6738-4.44336C90.6738-0.390625 93.2617 2.19727 97.3145 2.19727L110.596 2.19727C114.648 2.19727 117.285-0.390625 117.285-4.44336L117.285-66.8945C117.285-70.9473 114.648-73.5352 110.596-73.5352L97.3145-73.5352C93.2617-73.5352 90.6738-70.9473 90.6738-66.8945ZM23.3887-4.44336C23.3887-0.390625 26.0254 2.19727 30.0781 2.19727L43.3105 2.19727C47.3633 2.19727 50-0.390625 50-4.44336L50-54.3457C50-58.3984 47.3633-60.9863 43.3105-60.9863L30.0781-60.9863C26.0254-60.9863 23.3887-58.3984 23.3887-54.3457ZM124.316-4.44336C124.316-0.390625 126.953 2.19727 131.006 2.19727L144.238 2.19727C148.291 2.19727 150.928-0.390625 150.928-4.44336L150.928-42.041C150.928-46.0938 148.291-48.6816 144.238-48.6816L131.006-48.6816C126.953-48.6816 124.316-46.0938 124.316-42.041ZM16.0645 18.8477C16.0645 23.0469 19.2871 26.0742 23.3887 26.0742L150.928 26.0742C155.029 26.0742 158.301 23.0469 158.301 18.8477C158.301 14.6484 155.029 11.6699 150.928 11.6699L23.3887 11.6699C19.2871 11.6699 16.0645 14.6484 16.0645 18.8477Z"/>
  </g>
  <g id="Semibold-L" transform="matrix(1 0 0 1 1958.01 1556)">
   <path d="M55.5176-2.49023C55.5176 1.2207 57.959 3.56445 61.7676 3.56445L75.4395 3.56445C79.248 3.56445 81.6895 1.2207 81.6895-2.49023L81.6895-81.5918C81.6895-85.3027 79.248-87.6465 75.4395-87.6465L61.7676-87.6465C57.959-87.6465 55.5176-85.3027 55.5176-81.5918ZM88.7695-2.49023C88.7695 1.2207 91.1621 3.56445 94.9707 3.56445L108.691 3.56445C112.5 3.56445 114.941 1.2207 114.941-2.49023L114.941-67.0898C114.941-70.8496 112.5-73.1934 108.691-73.1934L94.9707-73.1934C91.1621-73.1934 88.7695-70.8496 88.7695-67.0898ZM22.2656-2.49023C22.2656 1.2207 24.707 3.56445 28.4668 3.56445L42.1875 3.56445C45.9473 3.56445 48.4375 1.2207 48.4375-2.49023L48.4375-54.0527C48.4375-57.7637 45.9473-60.1074 42.1875-60.1074L28.4668-60.1074C24.707-60.1074 22.2656-57.7637 22.2656-54.0527ZM122.021-2.49023C122.021 1.2207 124.463 3.56445 128.271 3.56445L141.992 3.56445C145.752 3.56445 148.193 1.2207 148.193-2.49023L148.193-41.3086C148.193-45.0195 145.752-47.3633 141.992-47.3633L128.271-47.3633C124.463-47.3633 122.021-45.0195 122.021-41.3086ZM16.0645 18.8965C16.0645 22.4609 18.8477 25.0488 22.3145 25.0488L148.193 25.0488C151.66 25.0488 154.443 22.4609 154.443 18.8965C154.443 15.332 151.66 12.7441 148.193 12.7441L22.3145 12.7441C18.8477 12.7441 16.0645 15.332 16.0645 18.8965Z"/>
  </g>
  <g id="Medium-L" transform="matrix(1 0 0 1 1662.77 1556)">
   <path d="M54.3945-1.02539C54.3945 2.44141 56.6406 4.58984 60.2539 4.58984L74.3164 4.58984C77.8809 4.58984 80.1758 2.44141 80.1758-1.02539L80.1758-81.4941C80.1758-84.9609 77.8809-87.1094 74.3164-87.1094L60.2539-87.1094C56.6406-87.1094 54.3945-84.9609 54.3945-81.4941ZM87.3535-1.02539C87.3535 2.44141 89.5996 4.58984 93.1641 4.58984L107.275 4.58984C110.84 4.58984 113.135 2.44141 113.135-1.02539L113.135-67.2363C113.135-70.752 110.84-72.9004 107.275-72.9004L93.1641-72.9004C89.5996-72.9004 87.3535-70.752 87.3535-67.2363ZM21.4355-1.02539C21.4355 2.44141 23.6816 4.58984 27.2949 4.58984L41.3574 4.58984C44.9219 4.58984 47.2168 2.44141 47.2168-1.02539L47.2168-53.8086C47.2168-57.2754 44.9219-59.4727 41.3574-59.4727L27.2949-59.4727C23.6816-59.4727 21.4355-57.2754 21.4355-53.8086ZM120.312-1.02539C120.312 2.44141 122.607 4.58984 126.172 4.58984L140.283 4.58984C143.799 4.58984 146.094 2.44141 146.094-1.02539L146.094-40.7227C146.094-44.1895 143.799-46.3867 140.283-46.3867L126.172-46.3867C122.607-46.3867 120.312-44.1895 120.312-40.7227ZM16.0645 18.9453C16.0645 22.0215 18.5059 24.2676 21.4844 24.2676L146.094 24.2676C149.072 24.2676 151.514 22.0215 151.514 18.9453C151.514 15.8691 149.072 13.623 146.094 13.623L21.4844 13.623C18.5059 13.623 16.0645 15.8691 16.0645 18.9453Z"/>
  </g>
  <g id="Regular-L" transform="matrix(1 0 0 1 1367.96 1556)">
   <path d="M52.8809 0.878906C52.8809 4.05273 54.9805 5.95703 58.252 5.95703L72.8516 5.95703C76.123 5.95703 78.2227 4.05273 78.2227 0.878906L78.2227-81.3477C78.2227-84.5215 76.123-86.4258 72.8516-86.4258L58.252-86.4258C54.9805-86.4258 52.8809-84.5215 52.8809-81.3477ZM85.498 0.878906C85.498 4.05273 87.5488 5.95703 90.8203 5.95703L105.42 5.95703C108.74 5.95703 110.791 4.05273 110.791 0.878906L110.791-67.4805C110.791-70.6543 108.74-72.5586 105.42-72.5586L90.8203-72.5586C87.5488-72.5586 85.498-70.6543 85.498-67.4805ZM20.3125 0.878906C20.3125 4.05273 22.3633 5.95703 25.6836 5.95703L40.2832 5.95703C43.5059 5.95703 45.6543 4.05273 45.6543 0.878906L45.6543-53.5156C45.6543-56.6406 43.5059-58.5938 40.2832-58.5938L25.6836-58.5938C22.3633-58.5938 20.3125-56.6406 20.3125-53.5156ZM118.066 0.878906C118.066 4.05273 120.117 5.95703 123.438 5.95703L138.037 5.95703C141.309 5.95703 143.408 4.05273 143.408 0.878906L143.408-39.9902C143.408-43.1152 141.309-45.1172 138.037-45.1172L123.438-45.1172C120.117-45.1172 118.066-43.1152 118.066-39.9902ZM16.0645 18.9941C16.0645 21.4355 18.0664 23.291 20.4102 23.291L143.359 23.291C145.703 23.291 147.705 21.4355 147.705 18.9941C147.705 16.5527 145.703 14.6973 143.359 14.6973L20.4102 14.6973C18.0664 14.6973 16.0645 16.5527 16.0645 18.9941Z"/>
  </g>
  <g id="Light-L" transform="matrix(1 0 0 1 1071.08 1556)">
   <path d="M52.3926 3.56445C52.3926 6.54297 54.4434 8.39844 57.5684 8.39844L73.2422 8.39844C76.416 8.39844 78.418 6.54297 78.418 3.56445L78.418-82.6172C78.418-85.5957 76.416-87.4512 73.2422-87.4512L57.5684-87.4512C54.4434-87.4512 52.3926-85.5957 52.3926-82.6172ZM85.5957 3.56445C85.5957 6.54297 87.6465 8.39844 90.7227 8.39844L106.445 8.39844C109.57 8.39844 111.621 6.54297 111.621 3.56445L111.621-68.3105C111.621-71.2891 109.57-73.1934 106.445-73.1934L90.7227-73.1934C87.6465-73.1934 85.5957-71.2891 85.5957-68.3105ZM19.2871 3.56445C19.2871 6.54297 21.2402 8.39844 24.4629 8.39844L40.1367 8.39844C43.2129 8.39844 45.2637 6.54297 45.2637 3.56445L45.2637-53.9551C45.2637-56.9336 43.2129-58.8379 40.1367-58.8379L24.4629-58.8379C21.2402-58.8379 19.2871-56.9336 19.2871-53.9551ZM118.799 3.56445C118.799 6.54297 120.752 8.39844 123.975 8.39844L139.648 8.39844C142.725 8.39844 144.775 6.54297 144.775 3.56445L144.775-40.0879C144.775-43.0664 142.725-44.9707 139.648-44.9707L123.975-44.9707C120.752-44.9707 118.799-43.0664 118.799-40.0879ZM16.0645 19.8242C16.0645 21.7773 17.627 23.0957 19.3848 23.0957L144.727 23.0957C146.484 23.0957 148.047 21.7773 148.047 19.8242C148.047 17.9199 146.484 16.6016 144.727 16.6016L19.3848 16.6016C17.627 16.6016 16.0645 17.9199 16.0645 19.8242Z"/>
  </g>
  <g id="Thin-L" transform="matrix(1 0 0 1 774.147 1556)">
   <path d="M51.7578 7.08008C51.7578 9.86328 53.7109 11.6211 56.6895 11.6211L73.8281 11.6211C76.7578 11.6211 78.7109 9.86328 78.7109 7.08008L78.7109-84.2773C78.7109-87.0605 76.7578-88.8672 73.8281-88.8672L56.6895-88.8672C53.7109-88.8672 51.7578-87.0605 51.7578-84.2773ZM85.7422 7.08008C85.7422 9.86328 87.6953 11.6211 90.5762 11.6211L107.812 11.6211C110.742 11.6211 112.695 9.86328 112.695 7.08008L112.695-69.3848C112.695-72.168 110.742-73.9746 107.812-73.9746L90.5762-73.9746C87.6953-73.9746 85.7422-72.168 85.7422-69.3848ZM17.8711 7.08008C17.8711 9.86328 19.7754 11.6211 22.7539 11.6211L39.9414 11.6211C42.7734 11.6211 44.8242 9.86328 44.8242 7.08008L44.8242-54.5898C44.8242-57.373 42.7734-59.1309 39.9414-59.1309L22.7539-59.1309C19.7754-59.1309 17.8711-57.373 17.8711-54.5898ZM119.727 7.08008C119.727 9.86328 121.582 11.6211 124.609 11.6211L141.748 11.6211C144.629 11.6211 146.68 9.86328 146.68 7.08008L146.68-40.2344C146.68-43.0176 144.629-44.8242 141.748-44.8242L124.609-44.8242C121.582-44.8242 119.727-43.0176 119.727-40.2344ZM16.0645 20.9473C16.0645 22.2168 17.041 22.8516 18.0176 22.8516L146.533 22.8516C147.51 22.8516 148.486 22.2168 148.486 20.9473C148.486 19.7266 147.51 19.0918 146.533 19.0918L18.0176 19.0918C17.041 19.0918 16.0645 19.7266 16.0645 20.9473Z"/>
  </g>
  <g id="Ultralight-L" transform="matrix(1 0 0 1 477.338 1556)">
   <path d="M51.4648 8.88672C51.4648 11.5234 53.3691 13.2812 56.2012 13.2812L74.1211 13.2812C76.9531 13.2812 78.8574 11.5234 78.8574 8.88672L78.8574-85.1562C78.8574-87.8418 76.9531-89.5996 74.1211-89.5996L56.2012-89.5996C53.3691-89.5996 51.4648-87.8418 51.4648-85.1562ZM85.8398 8.88672C85.8398 11.5234 87.7441 13.2812 90.4785 13.2812L108.496 13.2812C111.328 13.2812 113.232 11.5234 113.232 8.88672L113.232-69.9707C113.232-72.6562 111.328-74.4141 108.496-74.4141L90.4785-74.4141C87.7441-74.4141 85.8398-72.6562 85.8398-69.9707ZM17.1875 8.88672C17.1875 11.5234 18.9941 13.2812 21.9238 13.2812L39.8438 13.2812C42.5781 13.2812 44.5801 11.5234 44.5801 8.88672L44.5801-54.8828C44.5801-57.5684 42.5781-59.3262 39.8438-59.3262L21.9238-59.3262C18.9941-59.3262 17.1875-57.5684 17.1875-54.8828ZM120.215 8.88672C120.215 11.5234 122.021 13.2812 124.951 13.2812L142.871 13.2812C145.605 13.2812 147.607 11.5234 147.607 8.88672L147.607-40.2832C147.607-42.9688 145.605-44.7266 142.871-44.7266L124.951-44.7266C122.021-44.7266 120.215-42.9688 120.215-40.2832ZM16.0645 21.5332C16.0645 22.4121 16.6992 22.7539 17.334 22.7539L147.412 22.7539C148.047 22.7539 148.682 22.4121 148.682 21.5332C148.682 20.6543 148.047 20.3613 147.412 20.3613L17.334 20.3613C16.6992 20.3613 16.0645 20.6543 16.0645 21.5332Z"/>
  </g>
  <g id="Black-M" transform="matrix(1 0 0 1 2858.28 1126)">
   <path d="M49.707-17.4805C49.707-13.1836 52.5391-10.3027 56.7871-10.3027L65.6738-10.3027C69.873-10.3027 72.6562-13.1836 72.6562-17.4805L72.6562-72.4609C72.6562-76.8066 69.873-79.7363 65.6738-79.7363L56.7871-79.7363C52.5391-79.7363 49.707-76.8066 49.707-72.4609ZM77.5879-17.4805C77.5879-13.1836 80.3223-10.3027 84.5215-10.3027L93.5547-10.3027C97.7051-10.3027 100.537-13.1836 100.537-17.4805L100.537-59.375C100.537-63.7207 97.7051-66.6016 93.5547-66.6016L84.5215-66.6016C80.3223-66.6016 77.5879-63.7207 77.5879-59.375ZM21.8262-17.4805C21.8262-13.1836 24.6582-10.3027 28.8086-10.3027L37.793-10.3027C41.9434-10.3027 44.7754-13.1836 44.7754-17.4805L44.7754-51.4648C44.7754-55.8105 41.9434-58.6914 37.793-58.6914L28.8086-58.6914C24.6582-58.6914 21.8262-55.8105 21.8262-51.4648ZM105.469-17.4805C105.469-13.1836 108.301-10.3027 112.451-10.3027L121.436-10.3027C125.586-10.3027 128.418-13.1836 128.418-17.4805L128.418-43.4082C128.418-47.7539 125.586-50.6348 121.436-50.6348L112.451-50.6348C108.301-50.6348 105.469-47.7539 105.469-43.4082ZM12.4512 6.98242C12.4512 12.4512 16.5039 16.1133 21.8262 16.1133L128.369 16.1133C133.74 16.1133 137.793 12.4512 137.793 6.98242C137.793 1.46484 133.74-2.19727 128.369-2.19727L21.8262-2.19727C16.5039-2.19727 12.4512 1.46484 12.4512 6.98242Z"/>
  </g>
  <g id="Heavy-M" transform="matrix(1 0 0 1 2564.35 1126)">
   <path d="M47.7539-15.4297C47.7539-11.5234 50.293-8.98438 54.1016-8.98438L63.4277-8.98438C67.2852-8.98438 69.7754-11.5234 69.7754-15.4297L69.7754-71.9727C69.7754-75.8789 67.2852-78.418 63.4277-78.418L54.1016-78.418C50.293-78.418 47.7539-75.8789 47.7539-71.9727ZM74.9023-15.4297C74.9023-11.5234 77.3438-8.98438 81.2012-8.98438L90.625-8.98438C94.3848-8.98438 96.9727-11.5234 96.9727-15.4297L96.9727-59.4727C96.9727-63.3789 94.3848-65.9668 90.625-65.9668L81.2012-65.9668C77.3438-65.9668 74.9023-63.3789 74.9023-59.4727ZM20.5566-15.4297C20.5566-11.5234 23.0957-8.98438 26.9043-8.98438L36.2305-8.98438C40.0391-8.98438 42.5781-11.5234 42.5781-15.4297L42.5781-50.9277C42.5781-54.834 40.0391-57.4219 36.2305-57.4219L26.9043-57.4219C23.0957-57.4219 20.5566-54.834 20.5566-50.9277ZM102.1-15.4297C102.1-11.5234 104.639-8.98438 108.447-8.98438L117.773-8.98438C121.582-8.98438 124.121-11.5234 124.121-15.4297L124.121-42.334C124.121-46.2402 121.582-48.8281 117.773-48.8281L108.447-48.8281C104.639-48.8281 102.1-46.2402 102.1-42.334ZM12.4512 6.78711C12.4512 11.5234 15.9668 14.6973 20.5566 14.6973L124.121 14.6973C128.76 14.6973 132.227 11.5234 132.227 6.78711C132.227 2.09961 128.76-1.12305 124.121-1.12305L20.5566-1.12305C15.9668-1.12305 12.4512 2.09961 12.4512 6.78711Z"/>
  </g>
  <g id="Bold-M" transform="matrix(1 0 0 1 2270.74 1126)">
   <path d="M45.5078-13.1348C45.5078-9.7168 47.7539-7.4707 51.1719-7.4707L60.9375-7.4707C64.3555-7.4707 66.5527-9.7168 66.5527-13.1348L66.5527-71.3867C66.5527-74.8047 64.3555-77.002 60.9375-77.002L51.1719-77.002C47.7539-77.002 45.5078-74.8047 45.5078-71.3867ZM71.875-13.1348C71.875-9.7168 74.0723-7.4707 77.4902-7.4707L87.3535-7.4707C90.7227-7.4707 92.9688-9.7168 92.9688-13.1348L92.9688-59.5703C92.9688-62.9883 90.7227-65.2344 87.3535-65.2344L77.4902-65.2344C74.0723-65.2344 71.875-62.9883 71.875-59.5703ZM19.0918-13.1348C19.0918-9.7168 21.3379-7.4707 24.707-7.4707L34.5215-7.4707C37.9395-7.4707 40.1855-9.7168 40.1855-13.1348L40.1855-50.293C40.1855-53.7109 37.9395-55.957 34.5215-55.957L24.707-55.957C21.3379-55.957 19.0918-53.7109 19.0918-50.293ZM98.291-13.1348C98.291-9.7168 100.537-7.4707 103.906-7.4707L113.721-7.4707C117.139-7.4707 119.385-9.7168 119.385-13.1348L119.385-41.1621C119.385-44.5801 117.139-46.8262 113.721-46.8262L103.906-46.8262C100.537-46.8262 98.291-44.5801 98.291-41.1621ZM12.4512 6.64062C12.4512 10.4492 15.3809 13.1836 19.0918 13.1836L119.385 13.1836C123.145 13.1836 126.025 10.4492 126.025 6.64062C126.025 2.7832 123.145 0.0976562 119.385 0.0976562L19.0918 0.0976562C15.3809 0.0976562 12.4512 2.7832 12.4512 6.64062Z"/>
  </g>
  <g id="Semibold-M" transform="matrix(1 0 0 1 1976.15 1126)">
   <path d="M43.9453-11.5234C43.9453-8.44727 45.9961-6.44531 49.1211-6.44531L59.2285-6.44531C62.3535-6.44531 64.3555-8.44727 64.3555-11.5234L64.3555-70.9961C64.3555-74.0723 62.3535-76.0254 59.2285-76.0254L49.1211-76.0254C45.9961-76.0254 43.9453-74.0723 43.9453-70.9961ZM69.8242-11.5234C69.8242-8.44727 71.8262-6.44531 74.9512-6.44531L85.0586-6.44531C88.1836-6.44531 90.2344-8.44727 90.2344-11.5234L90.2344-59.6191C90.2344-62.7441 88.1836-64.6973 85.0586-64.6973L74.9512-64.6973C71.8262-64.6973 69.8242-62.7441 69.8242-59.6191ZM18.1152-11.5234C18.1152-8.44727 20.1172-6.44531 23.2422-6.44531L33.3496-6.44531C36.4746-6.44531 38.4766-8.44727 38.4766-11.5234L38.4766-49.8535C38.4766-52.9785 36.4746-54.9316 33.3496-54.9316L23.2422-54.9316C20.1172-54.9316 18.1152-52.9785 18.1152-49.8535ZM95.7031-11.5234C95.7031-8.44727 97.7051-6.44531 100.83-6.44531L110.938-6.44531C114.062-6.44531 116.064-8.44727 116.064-11.5234L116.064-40.332C116.064-43.4082 114.062-45.4102 110.938-45.4102L100.83-45.4102C97.7051-45.4102 95.7031-43.4082 95.7031-40.332ZM12.4512 6.49414C12.4512 9.76562 14.9414 12.1094 18.1152 12.1094L116.113 12.1094C119.238 12.1094 121.777 9.76562 121.777 6.49414C121.777 3.27148 119.238 0.927734 116.113 0.927734L18.1152 0.927734C14.9414 0.927734 12.4512 3.27148 12.4512 6.49414Z"/>
  </g>
  <g id="Medium-M" transform="matrix(1 0 0 1 1681.08 1126)">
   <path d="M42.7734-10.3027C42.7734-7.4707 44.6289-5.71289 47.5586-5.71289L57.9102-5.71289C60.8398-5.71289 62.6465-7.4707 62.6465-10.3027L62.6465-70.6543C62.6465-73.4863 60.8398-75.293 57.9102-75.293L47.5586-75.293C44.6289-75.293 42.7734-73.4863 42.7734-70.6543ZM68.2617-10.3027C68.2617-7.4707 70.0684-5.71289 72.998-5.71289L83.3496-5.71289C86.2793-5.71289 88.1348-7.4707 88.1348-10.3027L88.1348-59.668C88.1348-62.5488 86.2793-64.3066 83.3496-64.3066L72.998-64.3066C70.0684-64.3066 68.2617-62.5488 68.2617-59.668ZM17.334-10.3027C17.334-7.4707 19.1895-5.71289 22.1191-5.71289L32.4707-5.71289C35.3516-5.71289 37.207-7.4707 37.207-10.3027L37.207-49.5605C37.207-52.3926 35.3516-54.1992 32.4707-54.1992L22.1191-54.1992C19.1895-54.1992 17.334-52.3926 17.334-49.5605ZM93.7012-10.3027C93.7012-7.4707 95.5566-5.71289 98.4863-5.71289L108.838-5.71289C111.719-5.71289 113.574-7.4707 113.574-10.3027L113.574-39.6973C113.574-42.5293 111.719-44.3359 108.838-44.3359L98.4863-44.3359C95.5566-44.3359 93.7012-42.5293 93.7012-39.6973ZM12.4512 6.44531C12.4512 9.17969 14.6484 11.2793 17.3828 11.2793L113.623 11.2793C116.309 11.2793 118.506 9.17969 118.506 6.44531C118.506 3.66211 116.309 1.5625 113.623 1.5625L17.3828 1.5625C14.6484 1.5625 12.4512 3.66211 12.4512 6.44531Z"/>
  </g>
  <g id="Regular-M" transform="matrix(1 0 0 1 1386.47 1126)">
   <path d="M41.2598-8.74023C41.2598-6.20117 42.9199-4.6875 45.5566-4.6875L56.2012-4.6875C58.8379-4.6875 60.498-6.20117 60.498-8.74023L60.498-70.2637C60.498-72.8027 58.8379-74.3164 56.2012-74.3164L45.5566-74.3164C42.9199-74.3164 41.2598-72.8027 41.2598-70.2637ZM66.2109-8.74023C66.2109-6.20117 67.8223-4.6875 70.459-4.6875L81.1523-4.6875C83.7402-4.6875 85.4004-6.20117 85.4004-8.74023L85.4004-59.7168C85.4004-62.3047 83.7402-63.8184 81.1523-63.8184L70.459-63.8184C67.8223-63.8184 66.2109-62.3047 66.2109-59.7168ZM16.3574-8.74023C16.3574-6.20117 17.9688-4.6875 20.6543-4.6875L31.2988-4.6875C33.8867-4.6875 35.5469-6.20117 35.5469-8.74023L35.5469-49.1211C35.5469-51.6113 33.8867-53.2227 31.2988-53.2227L20.6543-53.2227C17.9688-53.2227 16.3574-51.6113 16.3574-49.1211ZM91.1133-8.74023C91.1133-6.20117 92.7246-4.6875 95.4102-4.6875L106.055-4.6875C108.691-4.6875 110.352-6.20117 110.352-8.74023L110.352-38.8672C110.352-41.4062 108.691-42.9688 106.055-42.9688L95.4102-42.9688C92.7246-42.9688 91.1133-41.4062 91.1133-38.8672ZM12.4512 6.29883C12.4512 8.49609 14.2578 10.2051 16.3574 10.2051L110.352 10.2051C112.5 10.2051 114.307 8.49609 114.307 6.29883C114.307 4.15039 112.5 2.39258 110.352 2.39258L16.3574 2.39258C14.2578 2.39258 12.4512 4.15039 12.4512 6.29883Z"/>
  </g>
  <g id="Light-M" transform="matrix(1 0 0 1 1089.61 1126)">
   <path d="M40.8203-6.34766C40.8203-3.95508 42.4316-2.49023 44.9219-2.49023L56.5918-2.49023C59.082-2.49023 60.6934-3.95508 60.6934-6.34766L60.6934-71.3867C60.6934-73.7793 59.082-75.2441 56.5918-75.2441L44.9219-75.2441C42.4316-75.2441 40.8203-73.7793 40.8203-71.3867ZM66.3086-6.34766C66.3086-3.95508 67.8711-2.49023 70.3613-2.49023L82.0312-2.49023C84.5215-2.49023 86.1328-3.95508 86.1328-6.34766L86.1328-60.498C86.1328-62.8906 84.5215-64.3555 82.0312-64.3555L70.3613-64.3555C67.8711-64.3555 66.3086-62.8906 66.3086-60.498ZM15.4297-6.34766C15.4297-3.95508 16.9922-2.49023 19.4824-2.49023L31.1523-2.49023C33.6426-2.49023 35.2539-3.95508 35.2539-6.34766L35.2539-49.5605C35.2539-51.9043 33.6426-53.418 31.1523-53.418L19.4824-53.418C16.9922-53.418 15.4297-51.9043 15.4297-49.5605ZM91.748-6.34766C91.748-3.95508 93.3105-2.49023 95.8496-2.49023L107.52-2.49023C109.961-2.49023 111.572-3.95508 111.572-6.34766L111.572-38.9648C111.572-41.3574 109.961-42.8223 107.52-42.8223L95.8496-42.8223C93.3105-42.8223 91.748-41.3574 91.748-38.9648ZM12.4512 7.08008C12.4512 8.78906 13.8672 10.0586 15.4785 10.0586L111.572 10.0586C113.184 10.0586 114.6 8.78906 114.6 7.08008C114.6 5.37109 113.184 4.10156 111.572 4.10156L15.4785 4.10156C13.8672 4.10156 12.4512 5.37109 12.4512 7.08008Z"/>
  </g>
  <g id="Thin-M" transform="matrix(1 0 0 1 792.702 1126)">
   <path d="M40.2832-3.22266C40.2832-1.02539 41.7969 0.390625 44.1406 0.390625L57.0801 0.390625C59.4238 0.390625 60.9375-1.02539 60.9375-3.22266L60.9375-72.9004C60.9375-75.0977 59.4238-76.5137 57.0801-76.5137L44.1406-76.5137C41.7969-76.5137 40.2832-75.0977 40.2832-72.9004ZM66.4062-3.22266C66.4062-1.02539 67.9688 0.390625 70.2148 0.390625L83.252 0.390625C85.5957 0.390625 87.1094-1.02539 87.1094-3.22266L87.1094-61.4746C87.1094-63.6719 85.5957-65.0879 83.252-65.0879L70.2148-65.0879C67.9688-65.0879 66.4062-63.6719 66.4062-61.4746ZM14.1602-3.22266C14.1602-1.02539 15.625 0.390625 18.0176 0.390625L31.0059 0.390625C33.252 0.390625 34.8145-1.02539 34.8145-3.22266L34.8145-50.0977C34.8145-52.2949 33.252-53.7109 31.0059-53.7109L18.0176-53.7109C15.625-53.7109 14.1602-52.2949 14.1602-50.0977ZM92.5781-3.22266C92.5781-1.02539 94.043 0.390625 96.4355 0.390625L109.424 0.390625C111.67 0.390625 113.232-1.02539 113.232-3.22266L113.232-39.0625C113.232-41.2598 111.67-42.6758 109.424-42.6758L96.4355-42.6758C94.043-42.6758 92.5781-41.2598 92.5781-39.0625ZM12.4512 8.05664C12.4512 9.17969 13.3301 9.86328 14.2578 9.86328L113.184 9.86328C114.111 9.86328 114.99 9.17969 114.99 8.05664C114.99 6.98242 114.111 6.29883 113.184 6.29883L14.2578 6.29883C13.3301 6.29883 12.4512 6.98242 12.4512 8.05664Z"/>
  </g>
  <g id="Ultralight-M" transform="matrix(1 0 0 1 495.893 1126)">
   <path d="M39.9902-1.61133C39.9902 0.488281 41.4551 1.9043 43.7012 1.9043L57.3242 1.9043C59.5703 1.9043 61.084 0.488281 61.084-1.61133L61.084-73.6328C61.084-75.7812 59.5703-77.1484 57.3242-77.1484L43.7012-77.1484C41.4551-77.1484 39.9902-75.7812 39.9902-73.6328ZM66.5039-1.61133C66.5039 0.488281 67.9688 1.9043 70.166 1.9043L83.8867 1.9043C86.084 1.9043 87.5977 0.488281 87.5977-1.61133L87.5977-61.9629C87.5977-64.1113 86.084-65.4785 83.8867-65.4785L70.166-65.4785C67.9688-65.4785 66.5039-64.1113 66.5039-61.9629ZM13.5254-1.61133C13.5254 0.488281 14.9414 1.9043 17.2363 1.9043L30.9082 1.9043C33.0566 1.9043 34.6191 0.488281 34.6191-1.61133L34.6191-50.3418C34.6191-52.4902 33.0566-53.8574 30.9082-53.8574L17.2363-53.8574C14.9414-53.8574 13.5254-52.4902 13.5254-50.3418ZM93.0176-1.61133C93.0176 0.488281 94.4336 1.9043 96.7285 1.9043L110.4 1.9043C112.549 1.9043 114.111 0.488281 114.111-1.61133L114.111-39.1113C114.111-41.2598 112.549-42.627 110.4-42.627L96.7285-42.627C94.4336-42.627 93.0176-41.2598 93.0176-39.1113ZM12.4512 8.59375C12.4512 9.375 13.0371 9.7168 13.623 9.7168L113.965 9.7168C114.6 9.7168 115.186 9.375 115.186 8.59375C115.186 7.8125 114.6 7.4707 113.965 7.4707L13.623 7.4707C13.0371 7.4707 12.4512 7.8125 12.4512 8.59375Z"/>
  </g>
  <g id="Black-S" transform="matrix(1 0 0 1 2874.76 696)">
   <path d="M38.8184-21.1914C38.8184-17.8711 41.0156-15.625 44.2871-15.625L51.2695-15.625C54.541-15.625 56.6895-17.8711 56.6895-21.1914L56.6895-64.3555C56.6895-67.7246 54.541-69.9707 51.2695-69.9707L44.2871-69.9707C41.0156-69.9707 38.8184-67.7246 38.8184-64.3555ZM60.5957-21.1914C60.5957-17.8711 62.6953-15.625 65.9668-15.625L73.0469-15.625C76.2695-15.625 78.4668-17.8711 78.4668-21.1914L78.4668-54.1504C78.4668-57.5195 76.2695-59.7656 73.0469-59.7656L65.9668-59.7656C62.6953-59.7656 60.5957-57.5195 60.5957-54.1504ZM17.041-21.1914C17.041-17.8711 19.2383-15.625 22.4609-15.625L29.4922-15.625C32.7148-15.625 34.9121-17.8711 34.9121-21.1914L34.9121-47.9004C34.9121-51.2695 32.7148-53.5156 29.4922-53.5156L22.4609-53.5156C19.2383-53.5156 17.041-51.2695 17.041-47.9004ZM82.373-21.1914C82.373-17.8711 84.5703-15.625 87.793-15.625L94.8242-15.625C98.0469-15.625 100.244-17.8711 100.244-21.1914L100.244-41.5527C100.244-44.9219 98.0469-47.168 94.8242-47.168L87.793-47.168C84.5703-47.168 82.373-44.9219 82.373-41.5527ZM9.76562-2.19727C9.76562 2.05078 12.8906 4.88281 17.041 4.88281L100.244 4.88281C104.395 4.88281 107.52 2.05078 107.52-2.19727C107.52-6.44531 104.395-9.27734 100.244-9.27734L17.041-9.27734C12.8906-9.27734 9.76562-6.44531 9.76562-2.19727Z"/>
  </g>
  <g id="Heavy-S" transform="matrix(1 0 0 1 2580.19 696)">
   <path d="M37.3535-19.873C37.3535-16.8457 39.3066-14.8438 42.334-14.8438L49.5117-14.8438C52.5391-14.8438 54.4922-16.8457 54.4922-19.873L54.4922-63.8184C54.4922-66.8945 52.5391-68.8965 49.5117-68.8965L42.334-68.8965C39.3066-68.8965 37.3535-66.8945 37.3535-63.8184ZM58.5449-19.873C58.5449-16.8457 60.4492-14.8438 63.4277-14.8438L70.7031-14.8438C73.6816-14.8438 75.6348-16.8457 75.6348-19.873L75.6348-54.1504C75.6348-57.1777 73.6816-59.1797 70.7031-59.1797L63.4277-59.1797C60.4492-59.1797 58.5449-57.1777 58.5449-54.1504ZM16.1621-19.873C16.1621-16.8457 18.1641-14.8438 21.0938-14.8438L28.3203-14.8438C31.2988-14.8438 33.3008-16.8457 33.3008-19.873L33.3008-47.4121C33.3008-50.4883 31.2988-52.4902 28.3203-52.4902L21.0938-52.4902C18.1641-52.4902 16.1621-50.4883 16.1621-47.4121ZM79.6875-19.873C79.6875-16.8457 81.6895-14.8438 84.668-14.8438L91.8945-14.8438C94.873-14.8438 96.8262-16.8457 96.8262-19.873L96.8262-40.7227C96.8262-43.7988 94.873-45.8008 91.8945-45.8008L84.668-45.8008C81.6895-45.8008 79.6875-43.7988 79.6875-40.7227ZM9.76562-2.39258C9.76562 1.31836 12.5488 3.85742 16.1621 3.85742L96.875 3.85742C100.488 3.85742 103.223 1.31836 103.223-2.39258C103.223-6.10352 100.488-8.64258 96.875-8.64258L16.1621-8.64258C12.5488-8.64258 9.76562-6.10352 9.76562-2.39258Z"/>
  </g>
  <g id="Bold-S" transform="matrix(1 0 0 1 2285.88 696)">
   <path d="M35.6934-18.4082C35.6934-15.7227 37.4512-14.0137 40.1367-14.0137L47.5586-14.0137C50.2441-14.0137 52.002-15.7227 52.002-18.4082L52.002-63.2324C52.002-65.9668 50.2441-67.6758 47.5586-67.6758L40.1367-67.6758C37.4512-67.6758 35.6934-65.9668 35.6934-63.2324ZM56.2012-18.4082C56.2012-15.7227 57.9102-14.0137 60.5957-14.0137L68.0664-14.0137C70.752-14.0137 72.5098-15.7227 72.5098-18.4082L72.5098-54.1016C72.5098-56.8359 70.752-58.5449 68.0664-58.5449L60.5957-58.5449C57.9102-58.5449 56.2012-56.8359 56.2012-54.1016ZM15.1855-18.4082C15.1855-15.7227 16.8945-14.0137 19.5801-14.0137L27.0508-14.0137C29.7363-14.0137 31.4941-15.7227 31.4941-18.4082L31.4941-46.9238C31.4941-49.6094 29.7363-51.3672 27.0508-51.3672L19.5801-51.3672C16.8945-51.3672 15.1855-49.6094 15.1855-46.9238ZM76.7578-18.4082C76.7578-15.7227 78.4668-14.0137 81.1523-14.0137L88.623-14.0137C91.3086-14.0137 93.0664-15.7227 93.0664-18.4082L93.0664-39.7949C93.0664-42.4805 91.3086-44.2383 88.623-44.2383L81.1523-44.2383C78.4668-44.2383 76.7578-42.4805 76.7578-39.7949ZM9.76562-2.63672C9.76562 0.439453 12.1094 2.68555 15.1855 2.68555L93.0664 2.68555C96.0938 2.68555 98.4375 0.439453 98.4375-2.63672C98.4375-5.71289 96.0938-7.91016 93.0664-7.91016L15.1855-7.91016C12.1094-7.91016 9.76562-5.71289 9.76562-2.63672Z"/>
  </g>
  <g id="Semibold-S" transform="matrix(1 0 0 1 1990.8 696)">
   <path d="M34.5215-17.4316C34.5215-14.9414 36.1328-13.3789 38.623-13.3789L46.1914-13.3789C48.7305-13.3789 50.293-14.9414 50.293-17.4316L50.293-62.8418C50.293-65.2832 48.7305-66.8457 46.1914-66.8457L38.623-66.8457C36.1328-66.8457 34.5215-65.2832 34.5215-62.8418ZM54.5898-17.4316C54.5898-14.9414 56.1523-13.3789 58.6426-13.3789L66.2598-13.3789C68.75-13.3789 70.3613-14.9414 70.3613-17.4316L70.3613-54.1016C70.3613-56.5918 68.75-58.1055 66.2598-58.1055L58.6426-58.1055C56.1523-58.1055 54.5898-56.5918 54.5898-54.1016ZM14.4531-17.4316C14.4531-14.9414 16.0645-13.3789 18.5547-13.3789L26.1719-13.3789C28.6133-13.3789 30.2246-14.9414 30.2246-17.4316L30.2246-46.5332C30.2246-49.0234 28.6133-50.5859 26.1719-50.5859L18.5547-50.5859C16.0645-50.5859 14.4531-49.0234 14.4531-46.5332ZM74.6582-17.4316C74.6582-14.9414 76.2695-13.3789 78.7598-13.3789L86.3281-13.3789C88.8184-13.3789 90.4297-14.9414 90.4297-17.4316L90.4297-39.1602C90.4297-41.6016 88.8184-43.2129 86.3281-43.2129L78.7598-43.2129C76.2695-43.2129 74.6582-41.6016 74.6582-39.1602ZM9.76562-2.7832C9.76562-0.0976562 11.8652 1.85547 14.502 1.85547L90.4297 1.85547C93.0664 1.85547 95.166-0.0976562 95.166-2.7832C95.166-5.46875 93.0664-7.42188 90.4297-7.42188L14.502-7.42188C11.8652-7.42188 9.76562-5.46875 9.76562-2.7832Z"/>
  </g>
  <g id="Medium-S" transform="matrix(1 0 0 1 1695.33 696)">
   <path d="M33.6914-16.6504C33.6914-14.3555 35.1562-12.9395 37.5-12.9395L45.2148-12.9395C47.5098-12.9395 48.9746-14.3555 48.9746-16.6504L48.9746-62.5488C48.9746-64.7949 47.5098-66.2109 45.2148-66.2109L37.5-66.2109C35.1562-66.2109 33.6914-64.7949 33.6914-62.5488ZM53.418-16.6504C53.418-14.3555 54.834-12.9395 57.1777-12.9395L64.8926-12.9395C67.2363-12.9395 68.7012-14.3555 68.7012-16.6504L68.7012-54.1016C68.7012-56.3965 67.2363-57.8125 64.8926-57.8125L57.1777-57.8125C54.834-57.8125 53.418-56.3965 53.418-54.1016ZM13.9648-16.6504C13.9648-14.3555 15.4297-12.9395 17.7734-12.9395L25.4883-12.9395C27.7832-12.9395 29.248-14.3555 29.248-16.6504L29.248-46.2891C29.248-48.5352 27.7832-50 25.4883-50L17.7734-50C15.4297-50 13.9648-48.5352 13.9648-46.2891ZM73.1445-16.6504C73.1445-14.3555 74.6094-12.9395 76.9043-12.9395L84.6191-12.9395C86.9629-12.9395 88.4277-14.3555 88.4277-16.6504L88.4277-38.6719C88.4277-40.9668 86.9629-42.3828 84.6191-42.3828L76.9043-42.3828C74.6094-42.3828 73.1445-40.9668 73.1445-38.6719ZM9.76562-2.88086C9.76562-0.537109 11.6211 1.26953 13.9648 1.26953L88.4766 1.26953C90.7715 1.26953 92.6758-0.537109 92.6758-2.88086C92.6758-5.22461 90.7715-7.08008 88.4766-7.08008L13.9648-7.08008C11.6211-7.08008 9.76562-5.22461 9.76562-2.88086Z"/>
  </g>
  <g id="Regular-S" transform="matrix(1 0 0 1 1400.26 696)">
   <path d="M32.5684-15.625C32.5684-13.5742 33.8379-12.3535 35.9863-12.3535L43.8477-12.3535C45.9961-12.3535 47.3145-13.5742 47.3145-15.625L47.3145-62.1582C47.3145-64.1602 45.9961-65.3809 43.8477-65.3809L35.9863-65.3809C33.8379-65.3809 32.5684-64.1602 32.5684-62.1582ZM51.8066-15.625C51.8066-13.5742 53.125-12.3535 55.2734-12.3535L63.1348-12.3535C65.2344-12.3535 66.5527-13.5742 66.5527-15.625L66.5527-54.0527C66.5527-56.1523 65.2344-57.373 63.1348-57.373L55.2734-57.373C53.125-57.373 51.8066-56.1523 51.8066-54.0527ZM13.2812-15.625C13.2812-13.5742 14.5996-12.3535 16.6992-12.3535L24.6094-12.3535C26.709-12.3535 28.0273-13.5742 28.0273-15.625L28.0273-45.8984C28.0273-47.9492 26.709-49.2188 24.6094-49.2188L16.6992-49.2188C14.5996-49.2188 13.2812-47.9492 13.2812-45.8984ZM71.0938-15.625C71.0938-13.5742 72.4121-12.3535 74.5117-12.3535L82.4219-12.3535C84.5215-12.3535 85.8398-13.5742 85.8398-15.625L85.8398-38.0371C85.8398-40.0879 84.5215-41.3574 82.4219-41.3574L74.5117-41.3574C72.4121-41.3574 71.0938-40.0879 71.0938-38.0371ZM9.76562-3.07617C9.76562-1.12305 11.377 0.439453 13.2812 0.439453L85.8887 0.439453C87.793 0.439453 89.4043-1.12305 89.4043-3.07617C89.4043-4.98047 87.793-6.5918 85.8887-6.5918L13.2812-6.5918C11.377-6.5918 9.76562-4.98047 9.76562-3.07617Z"/>
  </g>
  <g id="Light-S" transform="matrix(1 0 0 1 1103.43 696)">
   <path d="M32.1777-13.5254C32.1777-11.5723 33.4473-10.4004 35.4492-10.4004L44.1895-10.4004C46.1914-10.4004 47.4609-11.5723 47.4609-13.5254L47.4609-63.1348C47.4609-65.0391 46.1914-66.2109 44.1895-66.2109L35.4492-66.2109C33.4473-66.2109 32.1777-65.0391 32.1777-63.1348ZM51.9043-13.5254C51.9043-11.5723 53.1738-10.4004 55.1758-10.4004L63.916-10.4004C65.9668-10.4004 67.2363-11.5723 67.2363-13.5254L67.2363-54.7363C67.2363-56.6895 65.9668-57.8613 63.916-57.8613L55.1758-57.8613C53.1738-57.8613 51.9043-56.6895 51.9043-54.7363ZM12.4512-13.5254C12.4512-11.5723 13.6719-10.4004 15.7227-10.4004L24.4629-10.4004C26.4648-10.4004 27.7344-11.5723 27.7344-13.5254L27.7344-46.2891C27.7344-48.1934 26.4648-49.4141 24.4629-49.4141L15.7227-49.4141C13.6719-49.4141 12.4512-48.1934 12.4512-46.2891ZM71.6309-13.5254C71.6309-11.5723 72.9004-10.4004 74.9512-10.4004L83.6914-10.4004C85.6934-10.4004 86.9629-11.5723 86.9629-13.5254L86.9629-38.1348C86.9629-40.0391 85.6934-41.2598 83.6914-41.2598L74.9512-41.2598C72.9004-41.2598 71.6309-40.0391 71.6309-38.1348ZM9.76562-2.39258C9.76562-0.878906 11.0352 0.292969 12.5 0.292969L86.9629 0.292969C88.4277 0.292969 89.6484-0.878906 89.6484-2.39258C89.6484-3.90625 88.4277-5.07812 86.9629-5.07812L12.5-5.07812C11.0352-5.07812 9.76562-3.90625 9.76562-2.39258Z"/>
  </g>
  <g id="Thin-S" transform="matrix(1 0 0 1 806.544 696)">
   <path d="M31.6895-10.7422C31.6895-8.98438 32.8613-7.86133 34.7168-7.86133L44.6289-7.86133C46.4844-7.86133 47.7051-8.98438 47.7051-10.7422L47.7051-64.4531C47.7051-66.2109 46.4844-67.334 44.6289-67.334L34.7168-67.334C32.8613-67.334 31.6895-66.2109 31.6895-64.4531ZM52.002-10.7422C52.002-8.98438 53.2227-7.86133 55.0781-7.86133L64.9902-7.86133C66.8457-7.86133 68.0664-8.98438 68.0664-10.7422L68.0664-55.6152C68.0664-57.373 66.8457-58.4961 64.9902-58.4961L55.0781-58.4961C53.2227-58.4961 52.002-57.373 52.002-55.6152ZM11.3281-10.7422C11.3281-8.98438 12.5-7.86133 14.4043-7.86133L24.3164-7.86133C26.123-7.86133 27.3926-8.98438 27.3926-10.7422L27.3926-46.7773C27.3926-48.5352 26.123-49.6582 24.3164-49.6582L14.4043-49.6582C12.5-49.6582 11.3281-48.5352 11.3281-46.7773ZM72.3633-10.7422C72.3633-8.98438 73.5352-7.86133 75.4395-7.86133L85.3516-7.86133C87.1582-7.86133 88.4277-8.98438 88.4277-10.7422L88.4277-38.2324C88.4277-39.9902 87.1582-41.1133 85.3516-41.1133L75.4395-41.1133C73.5352-41.1133 72.3633-39.9902 72.3633-38.2324ZM9.76562-1.51367C9.76562-0.537109 10.5469 0.146484 11.4258 0.146484L88.3789 0.146484C89.209 0.146484 89.9902-0.537109 89.9902-1.51367C89.9902-2.49023 89.209-3.125 88.3789-3.125L11.4258-3.125C10.5469-3.125 9.76562-2.49023 9.76562-1.51367Z"/>
  </g>
  <g id="Ultralight-S" transform="matrix(1 0 0 1 509.736 696)">
   <path d="M31.3965-9.32617C31.3965-7.61719 32.5684-6.54297 34.375-6.54297L44.873-6.54297C46.6309-6.54297 47.8027-7.61719 47.8027-9.32617L47.8027-65.1367C47.8027-66.7969 46.6309-67.8711 44.873-67.8711L34.375-67.8711C32.5684-67.8711 31.3965-66.7969 31.3965-65.1367ZM52.0996-9.32617C52.0996-7.61719 53.2715-6.54297 54.9805-6.54297L65.5273-6.54297C67.334-6.54297 68.5059-7.61719 68.5059-9.32617L68.5059-56.0547C68.5059-57.7148 67.334-58.7891 65.5273-58.7891L54.9805-58.7891C53.2715-58.7891 52.0996-57.7148 52.0996-56.0547ZM10.791-9.32617C10.791-7.61719 11.9141-6.54297 13.7207-6.54297L24.2188-6.54297C25.9766-6.54297 27.1973-7.61719 27.1973-9.32617L27.1973-47.0215C27.1973-48.6816 25.9766-49.7559 24.2188-49.7559L13.7207-49.7559C11.9141-49.7559 10.791-48.6816 10.791-47.0215ZM72.7539-9.32617C72.7539-7.61719 73.877-6.54297 75.7324-6.54297L86.2305-6.54297C87.9395-6.54297 89.1602-7.61719 89.1602-9.32617L89.1602-38.2812C89.1602-39.9414 87.9395-41.0156 86.2305-41.0156L75.7324-41.0156C73.877-41.0156 72.7539-39.9414 72.7539-38.2812ZM9.76562-1.02539C9.76562-0.341797 10.3027 0 10.8887 0L89.1113 0C89.6484 0 90.1855-0.341797 90.1855-1.02539C90.1855-1.70898 89.6484-2.09961 89.1113-2.09961L10.8887-2.09961C10.3027-2.09961 9.76562-1.70898 9.76562-1.02539Z"/>
  </g>
 </g>
</svg>
